#N canvas 687 166 815 503 12;
#X declare -path externals/iemlib;
#X obj 38 139 vu 15 120 empty empty -1 -8 0 10 #404040 #000000 1 0
;
#X obj 96 193 >;
#X floatatom 96 132 5 0 0 0 - - - 0;
#X obj 39 85 pvu~;
#X obj 28 5 declare -path externals/iemlib;
#X obj 40 46 adc~ 1;
#X floatatom 128 167 5 0 0 0 - - - 0;
#X text 104 45 mic input;
#N canvas 0 0 450 300 (subpatch) 0;
#X array sample1 44100 float 2;
#X coords 0 1 44100 -1 200 140 1 0 0;
#X restore 365 50 graph;
#X obj 268 39 soundfiler;
#X floatatom 268 71 5 0 0 0 - - - 0;
#X msg 268 8 read glass_necklace_short_hit.wav sample1;
#X obj 94 459 dac~;
#X obj 94 416 *~ 0.7;
#X obj 93 349 line~;
#X obj 94 384 tabread~ sample1;
#X msg 93 318 0 \, 44100 1000;
#X obj 94 258 spigot;
#X obj 93 287 bng 15 250 50 0 empty empty empty 17 7 0 10 #fcfcfc #000000
#000000;
#X floatatom 133 220 5 0 0 0 - - - 0;
#X obj 93 222 tgl 15 0 empty empty empty 17 7 0 10 #fcfcfc #000000
#000000 0 1;
#X text 129 193 if signal over -12db \, trigger;
#X text 138 131 signal level;
#X text 136 463 audio output;
#X connect 1 0 19 0;
#X connect 1 0 20 0;
#X connect 2 0 1 0;
#X connect 3 0 0 0;
#X connect 3 0 2 0;
#X connect 5 0 3 0;
#X connect 6 0 1 1;
#X connect 9 0 10 0;
#X connect 11 0 9 0;
#X connect 13 0 12 0;
#X connect 13 0 12 1;
#X connect 14 0 15 0;
#X connect 15 0 13 0;
#X connect 16 0 14 0;
#X connect 17 0 18 0;
#X connect 18 0 16 0;
#X connect 19 0 17 1;
#X connect 20 0 17 0;
