#N canvas -8 0 1099 956 12;
#N canvas 0 0 450 300 (subpatch) 0;
#X array sample1 66350 float 2;
#X coords 0 1 66350 -1 200 140 1 0 0;
#X restore 1415 84 graph;
#X obj 1049 117 soundfiler;
#X floatatom 1049 149 8 0 0 0 - - - 0;
#X obj 44 377 bng 15 250 50 0 empty empty empty 17 7 0 10 #fcfcfc #000000
#000000;
#X obj 1015 51 bng 15 250 50 0 empty empty empty 17 7 0 10 #fcfcfc
#000000 #000000;
#N canvas 0 0 450 300 (subpatch) 0;
#X array sample2 116176 float 2;
#X coords 0 1 116176 -1 200 140 1 0 0;
#X restore 1417 245 graph;
#N canvas 0 0 450 300 (subpatch) 0;
#X array sample3 706610 float 2;
#X coords 0 1 706610 -1 200 140 1 0 0;
#X restore 1418 408 graph;
#X obj 1047 276 soundfiler;
#X floatatom 1047 308 8 0 0 0 - - - 0;
#X obj 1029 440 soundfiler;
#X floatatom 1029 472 8 0 0 0 - - - 0;
#X msg 1049 86 read -resize glass_necklace_short_hit.wav sample1;
#X msg 1047 245 read -resize nut_drop_roll_medium.wav sample2;
#X msg 1029 409 read -resize tape_recorder_long_rhythmic.wav sample3
;
#X obj 45 470 pack f f f;
#X obj 1051 184 s endsample1;
#X obj 1049 345 s endsample2;
#X obj 1028 505 s endsample3;
#X msg 46 607 \$1 \, \$2 \$3;
#X text 121 607 start \, end duration;
#X floatatom 44 435 5 0 0 0 - - - 0;
#X floatatom 166 377 9 0 0 3 duration\ in\ ms - selected_duration 0
;
#X obj 62 531 print;
#X msg 62 502 \$1 \$2 \$3;
#X obj 40 227 bonk~;
#X msg 53 197 minvel \$1;
#X obj 56 145 hsl 128 15 0 127 0 0 empty empty DETECTION\\\ LEVEL -2
-8 1 10 #ffe3c6 #000000 #510c72 0 1;
#X floatatom 64 169 5 0 0 0 - - - 0;
#X text 1043 48 ← CLICK TO LOAD ALL SOUND FILES;
#X text 57 554 check values see console, f 12;
#X obj 46 752 line~;
#X obj 1014 20 loadbang;
#X obj 52 70 loadbang;
#X obj 173 673 makefilename sample%d;
#X obj 709 142 r endsample1;
#X obj 709 174 v dur1;
#X obj 809 141 r endsample2;
#X obj 809 173 v dur2;
#X obj 907 141 r endsample3;
#X obj 907 173 v dur3;
#X floatatom 811 201 9 0 0 0 - - - 0;
#X floatatom 708 202 9 0 0 0 - - - 0;
#X floatatom 908 203 9 0 0 0 - - - 0;
#X obj 173 705 symbol file;
#X obj 45 811 tabread~;
#X msg 96 751 set \$1;
#X obj 102 637 expr selectedsample;
#X floatatom 119 673 5 0 0 0 - - - 0;
#X text 250 637 retrieve current sample number to make sample name
;
#X obj 44 888 dac~ 1 2;
#X text 113 888 audio output (channel 1 & 2 - check Bela pin chart
for correct numbers - I'm guessing these ATM);
#X obj 197 742 print;
#X text 118 62 THIS LOADBANG MAY NEED TO CHANGE TO BE TRIGGERED VIA
SENSOR, f 32;
#X obj 44 846 *~ 3;
#X text 104 45 mic input (channels 1 & 2);
#X obj 40 46 adc~ 1 2;
#X msg 52 102 64;
#X obj 145 176 print \$1;
#X floatatom 78 376 8 0 0 3 end - - 0;
#N canvas 160 0 1620 956 readtouchbar 0;
#X obj 197 16 inlet;
#X obj 74 407 outlet;
#X msg 308 37 new touchbar 1 BAR;
#X obj 308 79 s bela_setTrill;
#X obj 272 158 r bela_trill;
#X obj 272 204 route touchbar;
#X obj 197 57 metro 200;
#X obj 197 251 list;
#X text 330 16 initialise sensor;
#X text 268 133 read sensor data stream;
#X obj 196 292 print touchbar;
#X obj 130 282 route 1;
#X obj 169 405 print afterroute;
#X msg 130 312 \$1;
#X obj 130 344 * 127;
#X text 12 240 if 1 touch \, use position to set detection level,
f 24;
#X connect 0 0 6 0;
#X connect 0 0 2 0;
#X connect 2 0 3 0;
#X connect 4 0 5 0;
#X connect 5 0 7 1;
#X connect 6 0 7 0;
#X connect 7 0 10 0;
#X connect 7 0 11 0;
#X connect 11 0 13 0;
#X connect 13 0 14 0;
#X connect 14 0 12 0;
#X connect 14 0 1 0;
#X restore 358 104 pd readtouchbar;
#X obj 400 168 selectasample;
#X obj 78 343 selectasample;
#X floatatom 407 207 7 0 0 0 - - - 0;
#X floatatom 476 205 8 0 0 0 - - - 0;
#X text 827 585 2022-July-26: I THINK THE ORDER ISSUE IS NOW SOLVED
BY MOVING THE BANG FROM BEING DIRECTLY FROM THE BONK~ TO AFTER THE
SELECTASAMPLE. STILL PRINTING TO CONSOLE OUT OF ORDER \, BUT IT DOESN'T
SEEM TO BE PRE-EMPTING THE NEXT SELECTION ANY MORE \, AND (ON THE LAPTOP)
IT IS NO LONGER EITHER TRIGGERING A SAMPLE ON LOAD \, OR NOT TRIGGERING
A SAMPLE ON FIRST ATTACK.;
#X text 834 693 HAPPY WITH THESE FIRST ABSTRACTIONS - SEEM TO BE WORKING
OK \, ALTHOUGH I SUSPECT SELECTASAMPLE WILL NEED TO BE MORE COMPLEX
ONCE WE HAVE MULTIPLE MICS? OR MAYBE NOT.;
#X obj 40 313 spigot;
#X obj 79 284 tgl 15 0 empty empty delay\ bonk 17 7 0 10 #fcfcfc #000000
#000000 0 1;
#X msg 100 258 1;
#X msg 165 265 0;
#X obj 102 227 delay 1000 1 msec;
#X obj 231 193 r selected_duration;
#X text 836 752 NEED TO TEST THE ORDER ISSUE ON BELA. ALSO THE TOUCHBAR
ABSTRACTION \, ALTHOUGH THAT SEEMS PRETTY SELF-CONTAINED BUT JUST NEED
TO CONFIRM IT'S STILL WORKING. ALSO NEED TO CHECK THE SPIGOT IS WORKING
SO THAT EACH FILE PLAYS ALL THE WAY THROUGH AND CAN'T BE INTERRUPTED
;
#X connect 1 0 2 0;
#X connect 2 0 15 0;
#X connect 3 0 20 0;
#X connect 4 0 11 0;
#X connect 4 0 12 0;
#X connect 4 0 13 0;
#X connect 4 0 39 0;
#X connect 4 0 37 0;
#X connect 4 0 35 0;
#X connect 4 0 59 0;
#X connect 7 0 8 0;
#X connect 8 0 16 0;
#X connect 9 0 10 0;
#X connect 10 0 17 0;
#X connect 11 0 1 0;
#X connect 12 0 7 0;
#X connect 13 0 9 0;
#X connect 14 0 18 0;
#X connect 14 0 23 0;
#X connect 18 0 46 0;
#X connect 18 0 30 0;
#X connect 20 0 14 0;
#X connect 23 0 22 0;
#X connect 24 0 66 0;
#X connect 25 0 24 0;
#X connect 26 0 25 0;
#X connect 26 0 27 0;
#X connect 27 0 57 0;
#X connect 30 0 44 0;
#X connect 31 0 4 0;
#X connect 32 0 56 0;
#X connect 32 0 60 0;
#X connect 33 0 43 0;
#X connect 34 0 35 0;
#X connect 35 0 41 0;
#X connect 36 0 37 0;
#X connect 37 0 40 0;
#X connect 38 0 39 0;
#X connect 39 0 42 0;
#X connect 43 0 45 0;
#X connect 43 0 51 0;
#X connect 44 0 53 0;
#X connect 45 0 44 0;
#X connect 46 0 33 0;
#X connect 46 0 47 0;
#X connect 53 0 49 0;
#X connect 55 0 24 0;
#X connect 56 0 26 0;
#X connect 59 0 26 0;
#X connect 60 0 62 0;
#X connect 60 1 63 0;
#X connect 61 0 14 1;
#X connect 61 0 58 0;
#X connect 61 0 3 0;
#X connect 61 1 14 2;
#X connect 61 1 21 0;
#X connect 62 0 14 1;
#X connect 63 0 14 2;
#X connect 66 0 61 0;
#X connect 67 0 66 1;
#X connect 68 0 67 0;
#X connect 69 0 67 0;
#X connect 70 0 68 0;
#X connect 71 0 70 0;
#X connect 71 0 69 0;
