#N canvas 185 71 1611 956 12;
#N canvas 0 0 450 300 (subpatch) 0;
#X array sample1 16973 float 2;
#X coords 0 1 16973 -1 200 140 1 0 0;
#X restore 1415 84 graph;
#X obj 1049 117 soundfiler;
#X floatatom 1049 149 8 0 0 0 - - - 0;
#X obj 198 375 bng 15 250 50 0 empty empty empty 17 7 0 10 #fcfcfc
#000000 #000000;
#X obj 1015 51 bng 15 250 50 0 empty empty empty 17 7 0 10 #fcfcfc
#000000 #000000;
#N canvas 0 0 450 300 (subpatch) 0;
#X array sample2 16973 float 2;
#X coords 0 1 16973 -1 200 140 1 0 0;
#X restore 1417 245 graph;
#N canvas 0 0 450 300 (subpatch) 0;
#X array sample3 16973 float 2;
#X coords 0 1 16973 -1 200 140 1 0 0;
#X restore 1418 408 graph;
#X obj 1047 276 soundfiler;
#X floatatom 1047 308 8 0 0 0 - - - 0;
#X obj 1029 440 soundfiler;
#X floatatom 1029 472 8 0 0 0 - - - 0;
#X obj 199 468 pack f f f;
#X obj 1051 184 s endsample1;
#X obj 1049 345 s endsample2;
#X obj 1028 505 s endsample3;
#X msg 200 605 \$1 \, \$2 \$3;
#X text 275 605 start \, end duration;
#X floatatom 198 433 5 0 0 0 - - - 0;
#X floatatom 320 375 9 0 0 3 duration\ in\ ms - selected_duration 0
;
#X obj 216 529 print;
#X msg 216 500 \$1 \$2 \$3;
#X obj 194 225 bonk~;
#X msg 207 195 minvel \$1;
#X obj 210 143 hsl 128 15 0 127 0 0 empty empty DETECTION\\\ LEVEL
-2 -8 1 10 #ffe3c6 #000000 #510c72 0 1;
#X floatatom 218 167 5 0 0 0 - - - 0;
#X text 1043 48 ← CLICK TO LOAD ALL SOUND FILES;
#X text 211 552 check values see console, f 12;
#X obj 200 750 line~;
#X obj 1014 20 loadbang;
#X obj 206 68 loadbang;
#X obj 327 671 makefilename sample%d;
#X obj 709 142 r endsample1;
#X obj 709 174 v dur1;
#X obj 809 141 r endsample2;
#X obj 809 173 v dur2;
#X obj 907 141 r endsample3;
#X obj 907 173 v dur3;
#X floatatom 811 201 9 0 0 0 - - - 0;
#X floatatom 708 202 9 0 0 0 - - - 0;
#X floatatom 908 203 9 0 0 0 - - - 0;
#X obj 327 703 symbol file;
#X msg 250 749 set \$1;
#X obj 256 635 expr selectedsample;
#X floatatom 273 671 5 0 0 0 - - - 0;
#X text 404 635 retrieve current sample number to make sample name
;
#X obj 198 886 dac~ 1 2;
#X text 267 886 audio output (channel 1 & 2 - check Bela pin chart
for correct numbers - I'm guessing these ATM);
#X obj 351 740 print;
#X text 262 7 mic input (channels 1 & 2);
#X obj 195 9 adc~ 1 2;
#X msg 206 100 64;
#X obj 299 174 print \$1;
#X floatatom 232 374 8 0 0 3 end - - 0;
#N canvas 160 0 1620 956 readtouchbar 0;
#X obj 197 16 inlet;
#X obj 74 407 outlet;
#X msg 308 37 new touchbar 1 BAR;
#X obj 308 79 s bela_setTrill;
#X obj 272 158 r bela_trill;
#X obj 272 204 route touchbar;
#X obj 197 57 metro 200;
#X obj 197 251 list;
#X text 330 16 initialise sensor;
#X text 268 133 read sensor data stream;
#X obj 196 292 print touchbar;
#X obj 130 282 route 1;
#X obj 169 405 print afterroute;
#X msg 130 312 \$1;
#X obj 130 344 * 127;
#X text 12 240 if 1 touch \, use position to set detection level,
f 24;
#X connect 0 0 6 0;
#X connect 0 0 2 0;
#X connect 2 0 3 0;
#X connect 4 0 5 0;
#X connect 5 0 7 1;
#X connect 6 0 7 0;
#X connect 7 0 10 0;
#X connect 7 0 11 0;
#X connect 11 0 13 0;
#X connect 13 0 14 0;
#X connect 14 0 12 0;
#X connect 14 0 1 0;
#X restore 512 102 pd readtouchbar;
#X obj 554 166 selectasample;
#X obj 232 341 selectasample;
#X floatatom 561 205 7 0 0 0 - - - 0;
#X floatatom 630 203 8 0 0 0 - - - 0;
#X obj 194 311 spigot;
#X obj 233 282 tgl 15 0 empty empty delay\\\ bonk 17 7 0 10 #fcfcfc
#000000 #000000 0 1;
#X msg 254 256 1;
#X msg 319 263 0;
#X obj 256 225 delay 1000 1 msec;
#X obj 385 191 r selected_duration;
#X floatatom 19 120 5 0 0 0 - - - 0;
#X obj 389 821 pitchshift;
#X floatatom 18 377 5 0 0 3 transpose - transpose 0;
#X obj 18 299 spigot;
#X obj 93 277 tgl 15 0 empty empty empty 17 7 0 10 #fcfcfc #000000
#000000 0 1;
#X obj 199 809 tabread4~;
#X msg 97 316 0;
#X obj 19 54 env~ 200 500;
#N canvas 32 32 970 499 scaler 0;
#X obj 30 26 inlet;
#X obj 30 98 -;
#X obj 30 224 /;
#X obj 30 285 *;
#X obj 30 345 +;
#X obj 30 365 outlet;
#X obj 70 26 inlet;
#X obj 70 83 t a a;
#X obj 115 26 inlet;
#X obj 97 169 pack f f;
#X msg 97 189 \$1 \$2;
#X obj 97 209 -;
#X obj 115 136 t b a;
#X obj 160 26 inlet;
#X obj 160 188 t a a;
#X obj 205 26 inlet;
#X obj 187 230 pack f f;
#X msg 187 250 \$1 \$2;
#X obj 187 270 -;
#X obj 205 197 t b a;
#X obj 275 26 loadbang;
#X obj 275 46 t b b b b;
#X obj 77 61 f \$1;
#X obj 212 175 f \$4;
#X obj 167 166 f \$3;
#X obj 122 114 f \$2;
#X text 26 414 abstraction by erash from this thread: https://forum.pdpatchrepo.info/topic/6813/creating-scale-or-range/3
, f 71;
#X text 394 26 inlets from left to right: 1 number input 2 old low
3 old high 4 new low 5 new high;
#X connect 0 0 1 0;
#X connect 1 0 2 0;
#X connect 2 0 3 0;
#X connect 3 0 4 0;
#X connect 4 0 5 0;
#X connect 6 0 7 0;
#X connect 7 0 1 1;
#X connect 7 1 9 0;
#X connect 8 0 12 0;
#X connect 9 0 10 0;
#X connect 10 0 11 0;
#X connect 11 0 2 1;
#X connect 12 0 9 0;
#X connect 12 1 9 1;
#X connect 13 0 14 0;
#X connect 14 0 16 0;
#X connect 14 1 4 1;
#X connect 15 0 19 0;
#X connect 16 0 17 0;
#X connect 17 0 18 0;
#X connect 18 0 3 1;
#X connect 19 0 16 0;
#X connect 19 1 16 1;
#X connect 20 0 21 0;
#X connect 21 0 22 0;
#X connect 21 1 25 0;
#X connect 21 2 24 0;
#X connect 21 3 23 0;
#X connect 22 0 7 0;
#X connect 23 0 19 0;
#X connect 24 0 14 0;
#X connect 25 0 12 0;
#X restore 19 216 pd scaler;
#X floatatom 76 143 5 0 0 0 - - - 0;
#X msg 74 173 80;
#X msg 121 170 0;
#X msg 153 200 1;
#X floatatom 18 255 5 0 0 0 - - - 0;
#X obj 7 154 moses 64;
#X text 827 585 2022-July-27: ABSTRACTIONS TESTED OK. ADDED REFINED
RANDOMISATION TO NOT REPEAT UNTIL ALL THREE FILES HAVE PLAYED (USING
VANILLAURN ABSTRACTION FOUND ONLINE - SEE ABSTRACTION FILE FOR ATTRIBUTION).
HAVE NOW ADDED SCALING TO THE AMPLITUDE REPORTED BY ENV~ TO DRIVE TRANSPOSITION
\, USING A SCALING ABSTRACTION FROM A DISCUSSION THREAD (ATTRIBUTION
IN SUBPATCH);
#X msg 1049 86 read -resize bottle1.wav sample1;
#X msg 1029 409 read -resize bottle1.wav sample3;
#X obj 198 844 *~ 10;
#X msg 1047 245 read -resize bottle1.wav sample2;
#X connect 1 0 2 0;
#X connect 2 0 12 0;
#X connect 3 0 17 0;
#X connect 4 0 80 0;
#X connect 4 0 83 0;
#X connect 4 0 81 0;
#X connect 4 0 36 0;
#X connect 4 0 34 0;
#X connect 4 0 32 0;
#X connect 4 0 53 0;
#X connect 7 0 8 0;
#X connect 8 0 13 0;
#X connect 9 0 10 0;
#X connect 10 0 14 0;
#X connect 11 0 15 0;
#X connect 11 0 20 0;
#X connect 15 0 42 0;
#X connect 15 0 27 0;
#X connect 17 0 11 0;
#X connect 20 0 19 0;
#X connect 21 0 58 0;
#X connect 22 0 21 0;
#X connect 23 0 22 0;
#X connect 23 0 24 0;
#X connect 24 0 51 0;
#X connect 24 0 72 1;
#X connect 27 0 69 0;
#X connect 28 0 4 0;
#X connect 29 0 50 0;
#X connect 29 0 60 0;
#X connect 29 0 54 0;
#X connect 29 0 73 0;
#X connect 29 0 75 0;
#X connect 29 0 76 0;
#X connect 30 0 40 0;
#X connect 31 0 32 0;
#X connect 32 0 38 0;
#X connect 33 0 34 0;
#X connect 34 0 37 0;
#X connect 35 0 36 0;
#X connect 36 0 39 0;
#X connect 40 0 41 0;
#X connect 40 0 47 0;
#X connect 41 0 69 0;
#X connect 42 0 30 0;
#X connect 42 0 43 0;
#X connect 49 0 21 0;
#X connect 49 0 71 0;
#X connect 49 1 71 0;
#X connect 50 0 23 0;
#X connect 53 0 23 0;
#X connect 54 0 56 0;
#X connect 54 1 57 0;
#X connect 55 0 11 1;
#X connect 55 0 52 0;
#X connect 55 0 3 0;
#X connect 55 1 11 2;
#X connect 55 1 18 0;
#X connect 56 0 11 1;
#X connect 57 0 11 2;
#X connect 58 0 55 0;
#X connect 58 0 70 0;
#X connect 59 0 58 1;
#X connect 60 0 59 0;
#X connect 60 0 68 0;
#X connect 61 0 59 0;
#X connect 62 0 60 0;
#X connect 63 0 62 0;
#X connect 63 0 61 0;
#X connect 64 0 78 0;
#X connect 65 0 45 0;
#X connect 65 0 45 1;
#X connect 67 0 66 0;
#X connect 68 0 67 1;
#X connect 69 0 82 0;
#X connect 70 0 68 0;
#X connect 71 0 64 0;
#X connect 72 0 77 0;
#X connect 73 0 74 0;
#X connect 74 0 72 2;
#X connect 75 0 72 3;
#X connect 76 0 72 4;
#X connect 77 0 67 0;
#X connect 78 1 72 0;
#X connect 80 0 1 0;
#X connect 81 0 9 0;
#X connect 82 0 65 0;
#X connect 83 0 7 0;
