#N canvas 191 19 1611 956 12;
#X obj 198 375 bng 15 250 50 0 empty empty empty 17 7 0 10 #fcfcfc
#000000 #000000;
#X obj 512 47 bng 15 250 50 0 empty empty empty 17 7 0 10 #fcfcfc #000000
#000000;
#X obj 199 468 pack f f f;
#X msg 200 605 \$1 \, \$2 \$3;
#X text 275 605 start \, end duration;
#X floatatom 198 433 5 0 0 0 - - - 0;
#X floatatom 320 375 9 0 0 3 duration\ in\ ms - selected_duration 0
;
#X obj 216 529 print;
#X msg 216 500 \$1 \$2 \$3;
#X obj 194 225 bonk~;
#X msg 207 195 minvel \$1;
#X obj 210 143 hsl 128 15 0 127 0 0 empty empty DETECTION\\\ LEVEL
-2 -8 1 10 #ffe3c6 #000000 #510c72 0 1;
#X floatatom 218 167 5 0 0 0 - - - 0;
#X text 211 552 check values see console, f 12;
#X obj 200 726 line~;
#X obj 512 16 loadbang;
#X obj 206 68 loadbang;
#X obj 327 666 makefilename sample%d;
#X obj 327 698 symbol file;
#X msg 250 725 set \$1;
#X obj 256 635 expr selectedsample;
#X floatatom 273 666 5 0 0 0 - - - 0;
#X obj 198 886 dac~ 1 2;
#X obj 351 734 print;
#X msg 206 100 64;
#X obj 299 174 print \$1;
#X floatatom 232 374 8 0 0 3 end - - 0;
#N canvas 160 0 1620 956 readtouchbar 0;
#X obj 197 16 inlet;
#X obj 74 407 outlet;
#X msg 308 37 new touchbar 1 BAR;
#X obj 308 79 s bela_setTrill;
#X obj 272 158 r bela_trill;
#X obj 272 204 route touchbar;
#X obj 197 57 metro 200;
#X obj 197 251 list;
#X text 330 16 initialise sensor;
#X text 268 133 read sensor data stream;
#X obj 196 292 print touchbar;
#X obj 130 282 route 1;
#X obj 169 405 print afterroute;
#X msg 130 312 \$1;
#X obj 130 344 * 127;
#X text 12 240 if 1 touch \, use position to set detection level,
f 24;
#X connect 0 0 6 0;
#X connect 0 0 2 0;
#X connect 2 0 3 0;
#X connect 4 0 5 0;
#X connect 5 0 7 1;
#X connect 6 0 7 0;
#X connect 7 0 10 0;
#X connect 7 0 11 0;
#X connect 11 0 13 0;
#X connect 13 0 14 0;
#X connect 14 0 12 0;
#X connect 14 0 1 0;
#X restore 512 102 pd readtouchbar;
#X obj 554 166 selectasample;
#X obj 232 341 selectasample;
#X floatatom 554 205 7 0 0 3 end - - 0;
#X floatatom 642 204 8 0 0 3 duration\ in\ ms - - 0;
#X obj 194 311 spigot;
#X obj 233 282 tgl 15 0 empty empty delay\\\ bonk 17 7 0 10 #fcfcfc
#000000 #000000 0 1;
#X msg 254 256 1;
#X msg 319 263 0;
#X obj 256 225 delay 1000 1 msec;
#X obj 385 191 r selected_duration;
#X obj 197 838 pitchshift;
#X floatatom 16 377 5 0 0 3 transpose - transpose 0;
#X obj 199 763 tabread4~;
#X obj 198 798 *~ 10;
#X text 267 886 audio output;
#X text 282 838 uses 'transpose' value;
#N canvas 791 399 716 500 transposefromvelocity 1;
#X obj 18 17 inlet~;
#X floatatom 19 120 5 0 0 0 - - - 0;
#X obj 18 377 spigot;
#X obj 74 348 tgl 15 0 empty empty empty 17 7 0 10 #fcfcfc #000000
#000000 0 1;
#X msg 135 320 0;
#X obj 19 54 env~ 200 500;
#N canvas 548 216 970 499 scaler 0;
#X obj 30 26 inlet;
#X obj 30 98 -;
#X obj 30 224 /;
#X obj 30 285 *;
#X obj 30 345 +;
#X obj 30 365 outlet;
#X obj 70 26 inlet;
#X obj 70 83 t a a;
#X obj 115 26 inlet;
#X obj 97 169 pack f f;
#X msg 97 189 \$1 \$2;
#X obj 97 209 -;
#X obj 115 136 t b a;
#X obj 160 26 inlet;
#X obj 160 188 t a a;
#X obj 205 26 inlet;
#X obj 187 230 pack f f;
#X msg 187 250 \$1 \$2;
#X obj 187 270 -;
#X obj 205 197 t b a;
#X obj 275 26 loadbang;
#X obj 275 46 t b b b b;
#X obj 77 61 f \$1;
#X obj 212 175 f \$4;
#X obj 167 166 f \$3;
#X obj 122 114 f \$2;
#X text 26 414 abstraction by erash from this thread: https://forum.pdpatchrepo.info/topic/6813/creating-scale-or-range/3
, f 71;
#X text 395 46 1 number input;
#X text 395 67 2 old low value;
#X text 395 89 3 old high value;
#X text 396 112 4 new low value;
#X text 397 133 5 new high value;
#X text 394 26 inlets from left to right:;
#X connect 0 0 1 0;
#X connect 1 0 2 0;
#X connect 2 0 3 0;
#X connect 3 0 4 0;
#X connect 4 0 5 0;
#X connect 6 0 7 0;
#X connect 7 0 1 1;
#X connect 7 1 9 0;
#X connect 8 0 12 0;
#X connect 9 0 10 0;
#X connect 10 0 11 0;
#X connect 11 0 2 1;
#X connect 12 0 9 0;
#X connect 12 1 9 1;
#X connect 13 0 14 0;
#X connect 14 0 16 0;
#X connect 14 1 4 1;
#X connect 15 0 19 0;
#X connect 16 0 17 0;
#X connect 17 0 18 0;
#X connect 18 0 3 1;
#X connect 19 0 16 0;
#X connect 19 1 16 1;
#X connect 20 0 21 0;
#X connect 21 0 22 0;
#X connect 21 1 25 0;
#X connect 21 2 24 0;
#X connect 21 3 23 0;
#X connect 22 0 7 0;
#X connect 23 0 19 0;
#X connect 24 0 14 0;
#X connect 25 0 12 0;
#X restore 18 241 pd scaler;
#X floatatom 74 101 5 0 0 0 - - - 0;
#X msg 74 173 80;
#X msg 121 170 0;
#X floatatom 18 298 5 0 0 0 - - - 0;
#X obj 7 154 moses 64;
#X msg 157 202 4;
#X obj 157 86 loadbang;
#X obj 100 262 inlet;
#X obj 135 290 inlet;
#X obj 18 424 outlet;
#X text 250 24 inlet 1: mic signal;
#X text 249 262 inlet 2: float value (1) from delay;
#X text 250 292 inlet 3: spigot triggers 0 message to prevent changing
transposition while sound is playing;
#X text 258 422 outlet sends transpose value to transpose float box
(sends to pitchshift abstraction);
#X connect 0 0 5 0;
#X connect 1 0 11 0;
#X connect 2 0 16 0;
#X connect 3 0 2 1;
#X connect 4 0 3 0;
#X connect 5 0 1 0;
#X connect 6 0 10 0;
#X connect 7 0 8 0;
#X connect 8 0 6 2;
#X connect 9 0 6 3;
#X connect 10 0 2 0;
#X connect 11 1 6 0;
#X connect 12 0 6 4;
#X connect 13 0 8 0;
#X connect 13 0 9 0;
#X connect 13 0 12 0;
#X connect 14 0 3 0;
#X connect 15 0 4 0;
#X restore 16 341 pd transposefromvelocity;
#X obj 807 48 garage_samples_ch1;
#X obj 195 9 adc~ 1 2 3 4;
#X text 290 9 mic input (chnls 1 \, 2 \, 3 & 4), f 16;
#X text 953 50 Sample loading and setup values for channel 1;
#X text 661 135 1 Aug 2022: why am I not loadbanging the instance of
selectasample that's under the spigot? It connects to the same place
- maybe this one isn't needed? (or maybe it's because it outputs an
additional bang?);
#X text 392 375 s selected_duration;
#X connect 0 0 5 0;
#X connect 1 0 27 0;
#X connect 2 0 3 0;
#X connect 2 0 8 0;
#X connect 3 0 20 0;
#X connect 3 0 14 0;
#X connect 5 0 2 0;
#X connect 8 0 7 0;
#X connect 9 0 32 0;
#X connect 10 0 9 0;
#X connect 11 0 10 0;
#X connect 11 0 12 0;
#X connect 12 0 25 0;
#X connect 14 0 40 0;
#X connect 15 0 1 0;
#X connect 16 0 24 0;
#X connect 16 0 34 0;
#X connect 16 0 28 0;
#X connect 17 0 18 0;
#X connect 18 0 19 0;
#X connect 18 0 23 0;
#X connect 19 0 40 0;
#X connect 20 0 17 0;
#X connect 20 0 21 0;
#X connect 24 0 11 0;
#X connect 27 0 11 0;
#X connect 28 0 30 0;
#X connect 28 1 31 0;
#X connect 29 0 2 1;
#X connect 29 0 26 0;
#X connect 29 0 0 0;
#X connect 29 1 2 2;
#X connect 29 1 6 0;
#X connect 30 0 2 1;
#X connect 31 0 2 2;
#X connect 32 0 29 0;
#X connect 32 0 44 2;
#X connect 33 0 32 1;
#X connect 34 0 33 0;
#X connect 34 0 44 1;
#X connect 35 0 33 0;
#X connect 36 0 34 0;
#X connect 37 0 36 0;
#X connect 37 0 35 0;
#X connect 38 0 22 0;
#X connect 38 0 22 1;
#X connect 40 0 41 0;
#X connect 41 0 38 0;
#X connect 44 0 39 0;
#X connect 46 0 9 0;
#X connect 46 0 44 0;
#X connect 46 1 44 0;
