#N canvas 461 7 1611 956 12;
#X obj 512 47 bng 15 250 50 0 empty empty empty 17 7 0 10 #fcfcfc #000000
#000000;
#X obj 512 16 loadbang;
#X obj 198 886 dac~ 1 2;
#N canvas 160 0 1620 956 readtouchbar 0;
#X obj 197 16 inlet;
#X obj 74 407 outlet;
#X msg 308 37 new touchbar 1 BAR;
#X obj 308 79 s bela_setTrill;
#X obj 272 158 r bela_trill;
#X obj 272 204 route touchbar;
#X obj 197 57 metro 200;
#X obj 197 251 list;
#X text 330 16 initialise sensor;
#X text 268 133 read sensor data stream;
#X obj 196 292 print touchbar;
#X obj 130 282 route 1;
#X obj 169 405 print afterroute;
#X msg 130 312 \$1;
#X obj 130 344 * 127;
#X text 12 240 if 1 touch \, use position to set detection level,
f 24;
#X connect 0 0 6 0;
#X connect 0 0 2 0;
#X connect 2 0 3 0;
#X connect 4 0 5 0;
#X connect 5 0 7 1;
#X connect 6 0 7 0;
#X connect 7 0 10 0;
#X connect 7 0 11 0;
#X connect 11 0 13 0;
#X connect 13 0 14 0;
#X connect 14 0 12 0;
#X connect 14 0 1 0;
#X restore 512 78 pd readtouchbar;
#X obj 674 93 selectasample;
#X floatatom 674 132 7 0 0 3 end - - 0;
#X floatatom 762 131 8 0 0 3 duration\ in\ ms - - 0;
#X obj 197 838 pitchshift;
#X obj 199 763 tabread4~;
#X obj 198 798 *~ 10;
#X text 267 886 audio output;
#X text 282 838 uses 'transpose' value;
#X obj 807 48 garage_samples_ch1;
#X obj 195 9 adc~ 1 2 3 4;
#X text 290 9 mic input (chnls 1 \, 2 \, 3 & 4), f 16;
#X text 953 50 Sample loading and setup values for channel 1;
#N canvas 64 64 450 311 setdetectionlevel 0;
#X msg 108 235 minvel \$1;
#X obj 111 117 hsl 128 15 0 127 0 0 empty empty DETECTION\\\ LEVEL
-2 -8 1 10 #ffe3c6 #000000 #510c72 0 1;
#X floatatom 119 160 5 0 0 0 - - - 0;
#X obj 41 12 loadbang;
#X msg 41 44 64;
#X obj 119 193 print \$1;
#X obj 108 273 outlet;
#X obj 79 45 inlet;
#X text 129 46 value from Trill Bar touch sensor;
#X text 165 272 send detection level value to bonk~;
#X connect 0 0 6 0;
#X connect 1 0 0 0;
#X connect 1 0 2 0;
#X connect 2 0 5 0;
#X connect 3 0 4 0;
#X connect 4 0 1 0;
#X connect 7 0 1 0;
#X coords 0 -1 1 1 150 40 2 100 100;
#X restore 512 110 pd setdetectionlevel;
#N canvas 619 412 1124 813 detectandrespond 1;
#X obj 197 221 bng 15 250 50 0 empty empty empty 17 7 0 10 #fcfcfc
#000000 #000000;
#X obj 198 314 pack f f f;
#X msg 199 451 \$1 \, \$2 \$3;
#X text 274 451 start \, end duration;
#X floatatom 197 279 5 0 0 0 - - - 0;
#X floatatom 319 221 9 0 0 3 duration\ in\ ms - selected_duration 0
;
#X obj 215 375 print;
#X msg 215 346 \$1 \$2 \$3;
#X obj 193 71 bonk~;
#X text 210 398 check values see console, f 12;
#X obj 326 512 makefilename sample%d;
#X obj 326 544 symbol file;
#X msg 249 571 set \$1;
#X obj 255 481 expr selectedsample;
#X floatatom 272 512 5 0 0 0 - - - 0;
#X obj 350 580 print;
#X floatatom 231 220 8 0 0 3 end - - 0;
#X obj 231 187 selectasample;
#X obj 193 157 spigot;
#X obj 232 128 tgl 15 0 empty empty delay\\\ bonk 17 7 0 10 #fcfcfc
#000000 #000000 0 1;
#X msg 253 102 1;
#X msg 318 109 0;
#X obj 255 71 delay 1000 1 msec;
#X obj 384 37 r selected_duration;
#X floatatom 15 223 5 0 0 3 transpose - transpose 0;
#N canvas 1076 338 716 500 transposefromvelocity 0;
#X obj 18 17 inlet~;
#X floatatom 19 120 5 0 0 0 - - - 0;
#X obj 18 377 spigot;
#X obj 74 348 tgl 15 0 empty empty empty 17 7 0 10 #fcfcfc #000000
#000000 0 1;
#X msg 135 320 0;
#X obj 19 54 env~ 200 500;
#N canvas 548 216 970 499 scaler 0;
#X obj 30 26 inlet;
#X obj 30 98 -;
#X obj 30 224 /;
#X obj 30 285 *;
#X obj 30 345 +;
#X obj 30 365 outlet;
#X obj 70 26 inlet;
#X obj 70 83 t a a;
#X obj 115 26 inlet;
#X obj 97 169 pack f f;
#X msg 97 189 \$1 \$2;
#X obj 97 209 -;
#X obj 115 136 t b a;
#X obj 160 26 inlet;
#X obj 160 188 t a a;
#X obj 205 26 inlet;
#X obj 187 230 pack f f;
#X msg 187 250 \$1 \$2;
#X obj 187 270 -;
#X obj 205 197 t b a;
#X obj 275 26 loadbang;
#X obj 275 46 t b b b b;
#X obj 77 61 f \$1;
#X obj 212 175 f \$4;
#X obj 167 166 f \$3;
#X obj 122 114 f \$2;
#X text 26 414 abstraction by erash from this thread: https://forum.pdpatchrepo.info/topic/6813/creating-scale-or-range/3
, f 71;
#X text 395 46 1 number input;
#X text 395 67 2 old low value;
#X text 395 89 3 old high value;
#X text 396 112 4 new low value;
#X text 397 133 5 new high value;
#X text 394 26 inlets from left to right:;
#X connect 0 0 1 0;
#X connect 1 0 2 0;
#X connect 2 0 3 0;
#X connect 3 0 4 0;
#X connect 4 0 5 0;
#X connect 6 0 7 0;
#X connect 7 0 1 1;
#X connect 7 1 9 0;
#X connect 8 0 12 0;
#X connect 9 0 10 0;
#X connect 10 0 11 0;
#X connect 11 0 2 1;
#X connect 12 0 9 0;
#X connect 12 1 9 1;
#X connect 13 0 14 0;
#X connect 14 0 16 0;
#X connect 14 1 4 1;
#X connect 15 0 19 0;
#X connect 16 0 17 0;
#X connect 17 0 18 0;
#X connect 18 0 3 1;
#X connect 19 0 16 0;
#X connect 19 1 16 1;
#X connect 20 0 21 0;
#X connect 21 0 22 0;
#X connect 21 1 25 0;
#X connect 21 2 24 0;
#X connect 21 3 23 0;
#X connect 22 0 7 0;
#X connect 23 0 19 0;
#X connect 24 0 14 0;
#X connect 25 0 12 0;
#X restore 18 241 pd scaler;
#X floatatom 74 101 5 0 0 0 - - - 0;
#X msg 74 173 80;
#X msg 121 170 0;
#X floatatom 18 298 5 0 0 0 - - - 0;
#X obj 7 154 moses 64;
#X msg 157 202 4;
#X obj 157 86 loadbang;
#X obj 100 262 inlet;
#X obj 135 290 inlet;
#X obj 18 424 outlet;
#X text 250 24 inlet 1: mic signal;
#X text 249 262 inlet 2: float value (1) from delay;
#X text 250 292 inlet 3: spigot triggers 0 message to prevent changing
transposition while sound is playing;
#X text 258 422 outlet sends transpose value to transpose float box
(sends to pitchshift abstraction);
#X connect 0 0 5 0;
#X connect 1 0 11 0;
#X connect 2 0 16 0;
#X connect 3 0 2 1;
#X connect 4 0 3 0;
#X connect 5 0 1 0;
#X connect 6 0 10 0;
#X connect 7 0 8 0;
#X connect 8 0 6 2;
#X connect 9 0 6 3;
#X connect 10 0 2 0;
#X connect 11 1 6 0;
#X connect 12 0 6 4;
#X connect 13 0 8 0;
#X connect 13 0 9 0;
#X connect 13 0 12 0;
#X connect 14 0 3 0;
#X connect 15 0 4 0;
#X restore 15 187 pd transposefromvelocity;
#X text 391 221 s selected_duration;
#X text 249 637 to tabread4~;
#X obj 193 14 inlet;
#X text 527 35 value from below - setting the duration to not retrigger
(one-shot playback), f 31;
#X text 20 274 used by pitchshift abstraction in main patch, f 19
;
#X text 64 18 from adc~;
#X text 243 15 from detection level;
#X obj 15 17 inlet~;
#X obj 249 616 outlet~;
#X obj 200 726 line~;
#X obj 210 736 line~;
#X obj 220 746 line~;
#X obj 220 770;
#X obj 220 794;
#X obj 199 513 line~;
#X obj 61 223 print "mic received";
#X connect 0 0 4 0;
#X connect 1 0 2 0;
#X connect 1 0 7 0;
#X connect 2 0 13 0;
#X connect 2 0 40 0;
#X connect 4 0 1 0;
#X connect 7 0 6 0;
#X connect 8 0 18 0;
#X connect 10 0 11 0;
#X connect 11 0 12 0;
#X connect 11 0 15 0;
#X connect 12 0 34 0;
#X connect 13 0 10 0;
#X connect 13 0 14 0;
#X connect 17 0 1 1;
#X connect 17 0 16 0;
#X connect 17 0 0 0;
#X connect 17 1 1 2;
#X connect 17 1 5 0;
#X connect 18 0 17 0;
#X connect 18 0 25 2;
#X connect 19 0 18 1;
#X connect 20 0 19 0;
#X connect 20 0 25 1;
#X connect 21 0 19 0;
#X connect 22 0 20 0;
#X connect 23 0 22 0;
#X connect 23 0 21 0;
#X connect 25 0 24 0;
#X connect 25 0 41 0;
#X connect 28 0 8 0;
#X connect 33 0 25 0;
#X connect 33 0 8 0;
#X connect 37 0 38 0;
#X connect 38 0 39 0;
#X connect 40 0 34 0;
#X restore 194 262 pd detectandrespond;
#X connect 0 0 3 0;
#X connect 1 0 0 0;
#X connect 1 0 4 0;
#X connect 3 0 16 0;
#X connect 4 0 5 0;
#X connect 4 1 6 0;
#X connect 7 0 2 0;
#X connect 7 0 2 1;
#X connect 8 0 9 0;
#X connect 9 0 7 0;
#X connect 13 0 17 0;
#X connect 13 1 17 0;
#X connect 16 0 17 1;
#X connect 17 0 8 0;
