#N canvas 549 28 1308 868 12;
#X obj 512 -21 bng 15 250 50 0 empty empty empty 17 7 0 10 #fcfcfc
#000000 #000000;
#X obj 512 -72 loadbang;
#X obj 195 -79 adc~ 1 2 3 4;
#X text 290 -79 mic input (chnls 1 \, 2 \, 3 & 4), f 16;
#X obj 1063 557 cnv 15 200 200 empty empty Sample\\\ initialisation
20 12 1 14 #feffc6 #404040 0;
#N canvas 96 96 399 318 raiselevel 0;
#X obj 38 130 *~;
#X floatatom 97 93 5 0 0 0 - - - 0;
#X obj 97 30 loadbang;
#X msg 97 62 3;
#X obj 37 169 outlet~;
#X obj 39 91 inlet~;
#X text 140 62 multiply signal by 3;
#X text 33 232 this subpatch compensates for volume differences between
L and R channels passing through the 'Maker Hart' adapter (2 x mono
1/4" female to 1 x stereo minijack male). Can be removed if using different
equipment., f 45;
#X connect 0 0 4 0;
#X connect 1 0 0 1;
#X connect 2 0 3 0;
#X connect 3 0 1 0;
#X connect 5 0 0 0;
#X restore 206 173 pd raiselevel;
#X obj 195 610 pitchshift;
#X text 280 610 uses 'transpose' value;
#X obj 196 658 dac~ 1 2;
#X text 265 658 audio output;
#N canvas 96 96 399 318 raiselevel 0;
#X obj 38 130 *~;
#X floatatom 97 93 5 0 0 0 - - - 0;
#X obj 97 30 loadbang;
#X msg 97 62 3;
#X obj 37 169 outlet~;
#X obj 39 91 inlet~;
#X text 140 62 multiply signal by 3;
#X text 33 232 this subpatch compensates for volume differences between
L and R channels passing through the 'Maker Hart' adapter (2 x mono
1/4" female to 1 x stereo minijack male). Can be removed if using different
equipment., f 45;
#X connect 0 0 4 0;
#X connect 1 0 0 1;
#X connect 2 0 3 0;
#X connect 3 0 1 0;
#X connect 5 0 0 0;
#X restore 338 28 pd raiselevel;
#X obj 541 -21 s startmeup;
#X obj 967 558 r startmeup;
#X obj 967 588 bng 15 250 50 0 empty empty empty 17 7 0 10 #fcfcfc
#000000 #000000;
#X obj 725 -72 r startmeup;
#X obj 725 -42 bng 15 250 50 0 empty empty empty 17 7 0 10 #fcfcfc
#000000 #000000;
#X obj 747 -8 midi_levels 10 1;
#X obj 747 22 midi_levels 74 2;
#X obj 747 52 midi_levels 71 3;
#X obj 747 82 midi_levels 76 4;
#X obj 1032 -71 notein;
#X floatatom 1032 -42 5 0 0 0 - - - 0;
#X text 1095 -19 if button 16 on Beatstep \, set all levels to 0;
#X obj 1032 18 bng 15 250 50 0 empty empty empty 17 7 0 10 #fcfcfc
#000000 #000000;
#X msg 1032 43 0;
#X obj 1032 -13 route 43;
#X obj 927 261 ctlin;
#X floatatom 882 326 5 0 0 0 - - - 0;
#X floatatom 955 330 5 0 0 0 - - - 0;
#X floatatom 1028 332 5 0 0 0 - - - 0;
#X obj 21 361 processandselect 1;
#X obj 192 361 processandselect 2;
#X obj 364 361 processandselect 3;
#X obj 536 361 processandselect 4;
#X obj 1075 586 exquisite_samples_ch1;
#X obj 1075 611 exquisite_samples_ch2;
#X obj 1076 636 exquisite_samples_ch3;
#X obj 1076 661 exquisite_samples_ch4;
#X connect 0 0 11 0;
#X connect 0 0 30 2;
#X connect 0 0 31 2;
#X connect 0 0 32 2;
#X connect 0 0 33 2;
#X connect 1 0 0 0;
#X connect 2 0 30 0;
#X connect 2 1 5 0;
#X connect 2 2 32 0;
#X connect 2 3 10 0;
#X connect 5 0 31 0;
#X connect 6 0 8 0;
#X connect 6 0 8 1;
#X connect 10 0 33 0;
#X connect 12 0 13 0;
#X connect 13 0 34 0;
#X connect 13 0 35 0;
#X connect 13 0 36 0;
#X connect 13 0 37 0;
#X connect 14 0 15 0;
#X connect 15 0 16 0;
#X connect 15 0 17 0;
#X connect 15 0 18 0;
#X connect 15 0 19 0;
#X connect 16 0 30 1;
#X connect 17 0 31 1;
#X connect 18 0 32 1;
#X connect 19 0 33 1;
#X connect 20 0 21 0;
#X connect 21 0 25 0;
#X connect 23 0 24 0;
#X connect 23 0 16 1;
#X connect 23 0 17 1;
#X connect 23 0 18 1;
#X connect 23 0 19 1;
#X connect 25 0 23 0;
#X connect 26 0 27 0;
#X connect 26 1 28 0;
#X connect 26 2 29 0;
#X connect 30 0 6 0;
#X connect 31 0 6 0;
#X connect 32 0 6 0;
#X connect 33 0 6 0;
#X coords 0 43400 50 43350 0 0 0;
