#N canvas 687 166 1171 675 12;
#X declare -path externals/iemlib;
#X obj 38 139 vu 15 120 empty empty -1 -8 0 10 #404040 #000000 1 0
;
#X obj 96 193 >;
#X floatatom 96 132 5 0 0 0 - - - 0;
#X obj 39 85 pvu~;
#X obj 28 5 declare -path externals/iemlib;
#X obj 40 46 adc~ 1;
#X floatatom 128 167 5 0 0 0 - - - 0;
#X text 104 45 mic input;
#N canvas 0 0 450 300 (subpatch) 0;
#X array sample1 66350 float 2;
#X coords 0 1 66350 -1 200 140 1 0 0;
#X restore 926 22 graph;
#X obj 560 55 soundfiler;
#X floatatom 560 87 8 0 0 0 - - - 0;
#X obj 96 625 dac~;
#X obj 96 582 *~ 0.7;
#X obj 94 258 spigot;
#X obj 93 287 bng 15 250 50 0 empty empty empty 17 7 0 10 #fcfcfc #000000
#000000;
#X floatatom 133 220 5 0 0 0 - - - 0;
#X obj 93 222 tgl 15 0 empty empty empty 17 7 0 10 #fcfcfc #000000
#000000 0 1;
#X text 129 193 if signal over -12db \, trigger;
#X text 138 131 signal level;
#X text 138 629 audio output;
#X obj 526 7 bng 15 250 50 0 empty empty empty 17 7 0 10 #fcfcfc #000000
#000000;
#N canvas 0 0 450 300 (subpatch) 0;
#X array sample2 116176 float 2;
#X coords 0 1 116176 -1 200 140 1 0 0;
#X restore 928 183 graph;
#N canvas 0 0 450 300 (subpatch) 0;
#X array sample3 706610 float 2;
#X coords 0 1 706610 -1 200 140 1 0 0;
#X restore 929 346 graph;
#X obj 558 214 soundfiler;
#X floatatom 558 246 8 0 0 0 - - - 0;
#X obj 540 378 soundfiler;
#X floatatom 540 410 8 0 0 0 - - - 0;
#X msg 560 24 read -resize glass_necklace_short_hit.wav sample1;
#X msg 558 183 read -resize nut_drop_roll_medium.wav sample2;
#X msg 540 347 read -resize tape_recorder_long_rhythmic.wav sample3
;
#X obj 95 424 pack f f f;
#X obj 562 122 s endsample1;
#X obj 560 283 s endsample2;
#X obj 539 443 s endsample3;
#X msg 95 484 \$1 \, \$2 \$3;
#X text 170 484 start \, end duration;
#X floatatom 94 389 5 0 0 0 - - - 0;
#X obj 162 379 expr abs($f1 / 44.1);
#X floatatom 319 413 9 0 0 0 - - - 0;
#X obj 95 515 line~;
#X floatatom 170 341 8 0 0 0 - - - 0;
#X obj 225 518 print;
#X obj 143 313 r endsample2;
#X obj 96 550 tabread~ sample2;
#X text 317 375 calculate duration (CD quality);
#X msg 195 452 \$1 \$2 \$3;
#X connect 1 0 15 0;
#X connect 1 0 16 0;
#X connect 2 0 1 0;
#X connect 3 0 0 0;
#X connect 3 0 2 0;
#X connect 5 0 3 0;
#X connect 6 0 1 1;
#X connect 9 0 10 0;
#X connect 10 0 31 0;
#X connect 12 0 11 0;
#X connect 12 0 11 1;
#X connect 13 0 14 0;
#X connect 14 0 36 0;
#X connect 15 0 13 1;
#X connect 16 0 13 0;
#X connect 20 0 27 0;
#X connect 20 0 28 0;
#X connect 20 0 29 0;
#X connect 23 0 24 0;
#X connect 24 0 32 0;
#X connect 25 0 26 0;
#X connect 26 0 33 0;
#X connect 27 0 9 0;
#X connect 28 0 23 0;
#X connect 29 0 25 0;
#X connect 30 0 34 0;
#X connect 30 0 45 0;
#X connect 34 0 39 0;
#X connect 36 0 30 0;
#X connect 37 0 30 2;
#X connect 37 0 38 0;
#X connect 39 0 43 0;
#X connect 42 0 30 1;
#X connect 42 0 37 0;
#X connect 42 0 40 0;
#X connect 43 0 12 0;
#X connect 45 0 41 0;
