#N canvas 296 233 1308 956 12;
#X obj 897 48 bng 15 250 50 0 empty empty empty 17 7 0 10 #fcfcfc #000000
#000000;
#X obj 897 17 loadbang;
#X obj 993 15 cnv 15 220 140 empty empty Sample\\\ initialisation 20
12 1 14 #feffc6 #404040 0;
#X obj 1005 44 garage_samples_ch1;
#X obj 1006 69 garage_samples_ch2;
#N canvas 952 0 958 956 processandselect_ch2 0;
#X obj 190 318 pack f f f;
#X msg 191 455 \$1 \, \$2 \$3;
#X text 266 455 start \, end duration;
#X floatatom 190 283 5 0 0 0 - - - 0;
#X floatatom 330 271 9 0 0 3 duration\ in\ ms - ch2selected_duration
0;
#X obj 207 379 print;
#X msg 207 350 \$1 \$2 \$3;
#X obj 190 107 bonk~;
#X text 202 402 check values see console, f 12;
#X obj 191 576 line~;
#X obj 318 548 symbol file;
#X msg 241 575 set \$1;
#X floatatom 264 516 5 0 0 0 - - - 0;
#X obj 342 584 print;
#X floatatom 264 272 8 0 0 3 end - - 0;
#X floatatom 550 135 7 0 0 3 end - - 0;
#X floatatom 638 134 8 0 0 3 duration\ in\ ms - - 0;
#X obj 190 161 spigot;
#X obj 229 132 tgl 15 0 empty empty delay\\\ bonk 17 7 0 10 #fcfcfc
#000000 #000000 0 1;
#X msg 250 106 1;
#X msg 315 113 0;
#X obj 252 75 delay 1000 1 msec;
#X obj 550 11 inlet;
#X text 594 11 loadbang;
#X obj 189 58 inlet~;
#X text 116 59 from adc~;
#X obj 264 7 inlet;
#X text 308 7 detection level;
#X obj 318 516 makefilename ch2sample%d;
#X symbolatom 604 582 18 0 0 0 - - - 0;
#X obj 247 485 expr ch2selectedsample;
#X obj 244 235 selectasample_ch2;
#X text 402 268 s ch2selected_duration;
#X obj 550 96 selectasample_ch2;
#X obj 381 41 r ch2selected_duration;
#X obj 192 623 tabread4~;
#X obj 190 696 outlet~;
#X obj 191 658 *~ 6;
#X obj 190 197 t b b;
#X connect 0 0 1 0;
#X connect 0 0 6 0;
#X connect 1 0 9 0;
#X connect 1 0 30 0;
#X connect 3 0 0 0;
#X connect 6 0 5 0;
#X connect 7 0 17 0;
#X connect 9 0 35 0;
#X connect 10 0 11 0;
#X connect 10 0 13 0;
#X connect 10 0 29 0;
#X connect 11 0 35 0;
#X connect 15 0 0 1;
#X connect 16 0 0 2;
#X connect 17 0 38 0;
#X connect 18 0 17 1;
#X connect 19 0 18 0;
#X connect 20 0 18 0;
#X connect 21 0 19 0;
#X connect 22 0 19 0;
#X connect 22 0 33 0;
#X connect 24 0 7 0;
#X connect 26 0 7 0;
#X connect 28 0 10 0;
#X connect 30 0 12 0;
#X connect 30 0 28 0;
#X connect 31 0 14 0;
#X connect 31 0 0 1;
#X connect 31 1 4 0;
#X connect 31 1 0 2;
#X connect 33 0 15 0;
#X connect 33 1 16 0;
#X connect 34 0 21 0;
#X connect 34 0 20 0;
#X connect 35 0 37 0;
#X connect 37 0 36 0;
#X connect 38 0 3 0;
#X connect 38 1 31 0;
#X coords 0 -1 1 1 150 60 1 600 550;
#X restore 192 239 pd processandselect_ch2;
#N canvas -8 0 958 956 processandselect_ch1 1;
#X obj 193 338 pack f f f;
#X msg 194 475 \$1 \, \$2 \$3;
#X text 269 475 start \, end duration;
#X floatatom 193 303 5 0 0 0 - - - 0;
#X floatatom 311 261 9 0 0 3 duration\ in\ ms - selected_duration 0
;
#X obj 210 399 print;
#X msg 210 370 \$1 \$2 \$3;
#X obj 190 107 bonk~;
#X text 205 422 check values see console, f 12;
#X obj 194 596 line~;
#X obj 321 568 symbol file;
#X msg 244 595 set \$1;
#X floatatom 267 536 5 0 0 0 - - - 0;
#X obj 345 604 print;
#X floatatom 245 262 8 0 0 3 end - - 0;
#X floatatom 550 135 7 0 0 3 end - - 0;
#X floatatom 638 134 8 0 0 3 duration\ in\ ms - - 0;
#X obj 190 161 spigot;
#X obj 229 132 tgl 15 0 empty empty delay\\\ bonk 17 7 0 10 #fcfcfc
#000000 #000000 0 1;
#X msg 250 106 1;
#X msg 315 113 0;
#X obj 252 75 delay 1000 1 msec;
#X obj 381 41 r selected_duration;
#X floatatom 12 227 5 0 0 3 s\ transpose - transpose 0;
#N canvas 791 399 716 500 transposefromvelocity 0;
#X obj 18 17 inlet~;
#X floatatom 19 120 5 0 0 0 - - - 0;
#X obj 18 377 spigot;
#X obj 74 348 tgl 15 0 empty empty empty 17 7 0 10 #fcfcfc #000000
#000000 0 1;
#X msg 135 320 0;
#X obj 19 54 env~ 200 500;
#N canvas 548 216 970 499 scaler 0;
#X obj 30 26 inlet;
#X obj 30 98 -;
#X obj 30 224 /;
#X obj 30 285 *;
#X obj 30 345 +;
#X obj 30 365 outlet;
#X obj 70 26 inlet;
#X obj 70 83 t a a;
#X obj 115 26 inlet;
#X obj 97 169 pack f f;
#X msg 97 189 \$1 \$2;
#X obj 97 209 -;
#X obj 115 136 t b a;
#X obj 160 26 inlet;
#X obj 160 188 t a a;
#X obj 205 26 inlet;
#X obj 187 230 pack f f;
#X msg 187 250 \$1 \$2;
#X obj 187 270 -;
#X obj 205 197 t b a;
#X obj 275 26 loadbang;
#X obj 275 46 t b b b b;
#X obj 77 61 f \$1;
#X obj 212 175 f \$4;
#X obj 167 166 f \$3;
#X obj 122 114 f \$2;
#X text 26 414 abstraction by erash from this thread: https://forum.pdpatchrepo.info/topic/6813/creating-scale-or-range/3
, f 71;
#X text 395 46 1 number input;
#X text 395 67 2 old low value;
#X text 395 89 3 old high value;
#X text 396 112 4 new low value;
#X text 397 133 5 new high value;
#X text 394 26 inlets from left to right:;
#X connect 0 0 1 0;
#X connect 1 0 2 0;
#X connect 2 0 3 0;
#X connect 3 0 4 0;
#X connect 4 0 5 0;
#X connect 6 0 7 0;
#X connect 7 0 1 1;
#X connect 7 1 9 0;
#X connect 8 0 12 0;
#X connect 9 0 10 0;
#X connect 10 0 11 0;
#X connect 11 0 2 1;
#X connect 12 0 9 0;
#X connect 12 1 9 1;
#X connect 13 0 14 0;
#X connect 14 0 16 0;
#X connect 14 1 4 1;
#X connect 15 0 19 0;
#X connect 16 0 17 0;
#X connect 17 0 18 0;
#X connect 18 0 3 1;
#X connect 19 0 16 0;
#X connect 19 1 16 1;
#X connect 20 0 21 0;
#X connect 21 0 22 0;
#X connect 21 1 25 0;
#X connect 21 2 24 0;
#X connect 21 3 23 0;
#X connect 22 0 7 0;
#X connect 23 0 19 0;
#X connect 24 0 14 0;
#X connect 25 0 12 0;
#X restore 18 241 pd scaler;
#X floatatom 74 101 5 0 0 0 - - - 0;
#X msg 74 173 80;
#X msg 121 170 0;
#X floatatom 18 298 5 0 0 0 - - - 0;
#X obj 7 154 moses 64;
#X msg 157 202 4;
#X obj 157 86 loadbang;
#X obj 100 262 inlet;
#X obj 135 290 inlet;
#X obj 18 424 outlet;
#X text 250 24 inlet 1: mic signal;
#X text 249 262 inlet 2: float value (1) from delay;
#X text 250 292 inlet 3: spigot triggers 0 message to prevent changing
transposition while sound is playing;
#X text 258 422 outlet sends transpose value to transpose float box
(sends to pitchshift abstraction);
#X connect 0 0 5 0;
#X connect 1 0 11 0;
#X connect 2 0 16 0;
#X connect 3 0 2 1;
#X connect 4 0 3 0;
#X connect 5 0 1 0;
#X connect 6 0 10 0;
#X connect 7 0 8 0;
#X connect 8 0 6 2;
#X connect 9 0 6 3;
#X connect 10 0 2 0;
#X connect 11 1 6 0;
#X connect 12 0 6 4;
#X connect 13 0 8 0;
#X connect 13 0 9 0;
#X connect 13 0 12 0;
#X connect 14 0 3 0;
#X connect 15 0 4 0;
#X restore 12 191 pd transposefromvelocity;
#X obj 550 11 inlet;
#X text 594 11 loadbang;
#X obj 189 58 inlet~;
#X text 116 59 from adc~;
#X obj 264 7 inlet;
#X text 308 7 detection level;
#X symbolatom 610 583 18 0 0 0 - - - 0;
#X obj 550 96 selectasample;
#X obj 225 225 selectasample;
#X text 383 258 s selected_duration;
#X obj 250 505 expr selectedsample;
#X obj 321 536 makefilename sample%d;
#X obj 195 643 tabread4~;
#X obj 194 678 *~ 10;
#X obj 195 715 outlet~;
#X obj 193 191 t b b;
#X connect 0 0 1 0;
#X connect 0 0 6 0;
#X connect 1 0 9 0;
#X connect 1 0 35 0;
#X connect 3 0 0 0;
#X connect 6 0 5 0;
#X connect 7 0 17 0;
#X connect 9 0 37 0;
#X connect 10 0 11 0;
#X connect 10 0 13 0;
#X connect 10 0 31 0;
#X connect 11 0 37 0;
#X connect 15 0 0 1;
#X connect 16 0 0 2;
#X connect 17 0 24 2;
#X connect 17 0 40 0;
#X connect 18 0 17 1;
#X connect 19 0 18 0;
#X connect 19 0 24 1;
#X connect 20 0 18 0;
#X connect 21 0 19 0;
#X connect 22 0 21 0;
#X connect 22 0 20 0;
#X connect 24 0 23 0;
#X connect 25 0 19 0;
#X connect 25 0 32 0;
#X connect 27 0 7 0;
#X connect 27 0 24 0;
#X connect 29 0 7 0;
#X connect 32 0 15 0;
#X connect 32 1 16 0;
#X connect 33 0 14 0;
#X connect 33 0 0 1;
#X connect 33 1 4 0;
#X connect 33 1 0 2;
#X connect 35 0 12 0;
#X connect 35 0 36 0;
#X connect 36 0 10 0;
#X connect 37 0 38 0;
#X connect 38 0 39 0;
#X connect 40 0 3 0;
#X connect 40 1 33 0;
#X coords 0 -1 1 1 150 60 1 600 550;
#X restore 21 239 pd processandselect_ch1;
#N canvas 96 96 399 318 raiselevel 0;
#X obj 38 130 *~;
#X floatatom 97 93 5 0 0 0 - - - 0;
#X obj 97 30 loadbang;
#X msg 97 62 3;
#X obj 37 169 outlet~;
#X obj 39 91 inlet~;
#X text 140 62 multiply signal by 3;
#X text 33 232 this subpatch compensates for volume differences between
L and R channels passing through the 'Maker Hart' adapter (2 x mono
1/4" female to 1 x stereo minijack male). Can be removed if using different
equipment., f 45;
#X connect 0 0 4 0;
#X connect 1 0 0 1;
#X connect 2 0 3 0;
#X connect 3 0 1 0;
#X connect 5 0 0 0;
#X restore 157 133 pd raiselevel;
#X obj 20 322 pitchshift;
#X obj 196 746 dac~ 1 2;
#X text 265 746 audio output;
#N canvas -8 0 958 956 processandselect_ch3 0;
#X obj 190 368 pack f f f;
#X msg 191 505 \$1 \, \$2 \$3;
#X text 266 505 start \, end duration;
#X floatatom 190 333 5 0 0 0 - - - 0;
#X floatatom 308 278 9 0 0 3 duration\ in\ ms - ch3selected_duration
0;
#X obj 207 429 print;
#X msg 207 400 \$1 \$2 \$3;
#X obj 190 107 bonk~;
#X text 202 452 check values see console, f 12;
#X obj 191 626 line~;
#X obj 318 598 symbol file;
#X msg 241 625 set \$1;
#X floatatom 264 566 5 0 0 0 - - - 0;
#X obj 342 634 print;
#X floatatom 242 279 8 0 0 3 end - - 0;
#X floatatom 550 135 7 0 0 3 end - - 0;
#X floatatom 638 134 8 0 0 3 duration\ in\ ms - - 0;
#X obj 190 161 spigot;
#X obj 229 132 tgl 15 0 empty empty delay\\\ bonk 17 7 0 10 #fcfcfc
#000000 #000000 0 1;
#X msg 250 106 1;
#X msg 315 113 0;
#X obj 252 75 delay 1000 1 msec;
#X obj 550 11 inlet;
#X text 594 11 loadbang;
#X obj 189 58 inlet~;
#X text 116 59 from adc~;
#X obj 264 7 inlet;
#X text 308 7 detection level;
#X symbolatom 610 579 18 0 0 0 - - - 0;
#X text 380 275 s ch2selected_duration;
#X obj 192 673 tabread4~;
#X obj 190 746 outlet~;
#X obj 381 41 r ch3selected_duration;
#X obj 550 96 selectasample_ch3;
#X obj 222 242 selectasample_ch3;
#X obj 247 535 expr ch3selectedsample;
#X obj 318 566 makefilename ch3sample%d;
#X obj 191 708 *~ 6;
#X obj 190 201 t b b;
#X connect 0 0 1 0;
#X connect 0 0 6 0;
#X connect 1 0 9 0;
#X connect 1 0 35 0;
#X connect 3 0 0 0;
#X connect 6 0 5 0;
#X connect 7 0 17 0;
#X connect 9 0 30 0;
#X connect 10 0 11 0;
#X connect 10 0 13 0;
#X connect 10 0 28 0;
#X connect 11 0 30 0;
#X connect 15 0 0 1;
#X connect 16 0 0 2;
#X connect 17 0 38 0;
#X connect 18 0 17 1;
#X connect 19 0 18 0;
#X connect 20 0 18 0;
#X connect 21 0 19 0;
#X connect 22 0 19 0;
#X connect 22 0 33 0;
#X connect 24 0 7 0;
#X connect 26 0 7 0;
#X connect 30 0 37 0;
#X connect 32 0 21 0;
#X connect 32 0 20 0;
#X connect 33 0 15 0;
#X connect 33 1 16 0;
#X connect 34 0 14 0;
#X connect 34 0 0 1;
#X connect 34 1 4 0;
#X connect 34 1 0 2;
#X connect 35 0 12 0;
#X connect 35 0 36 0;
#X connect 36 0 10 0;
#X connect 37 0 31 0;
#X connect 38 0 3 0;
#X connect 38 1 34 0;
#X coords 0 -1 1 1 150 60 1 600 550;
#X restore 414 239 pd processandselect_ch3;
#X obj 1006 94 garage_samples_ch3;
#X text 42 342 uses 'transpose' value;
#N canvas -8 0 958 956 processandselect_ch5 0;
#X obj 190 358 pack f f f;
#X msg 191 495 \$1 \, \$2 \$3;
#X text 266 495 start \, end duration;
#X floatatom 190 323 5 0 0 0 - - - 0;
#X floatatom 308 268 9 0 0 3 duration\ in\ ms - ch5selected_duration
0;
#X obj 207 419 print;
#X msg 207 390 \$1 \$2 \$3;
#X obj 190 107 bonk~;
#X text 202 442 check values see console, f 12;
#X obj 191 616 line~;
#X obj 318 588 symbol file;
#X msg 241 615 set \$1;
#X floatatom 264 556 5 0 0 0 - - - 0;
#X obj 342 624 print;
#X floatatom 242 269 8 0 0 3 end - - 0;
#X floatatom 550 135 7 0 0 3 end - - 0;
#X floatatom 638 134 8 0 0 3 duration\ in\ ms - - 0;
#X obj 190 161 spigot;
#X obj 229 132 tgl 15 0 empty empty delay\\\ bonk 17 7 0 10 #fcfcfc
#000000 #000000 0 1;
#X msg 250 106 1;
#X msg 315 113 0;
#X obj 252 75 delay 1000 1 msec;
#X obj 591 6 inlet;
#X obj 148 8 inlet~;
#X obj 206 8 inlet;
#X symbolatom 611 584 18 0 0 0 - - - 0;
#X obj 192 663 tabread4~;
#X obj 190 736 outlet~;
#X text 380 265 s ch4selected_duration;
#X text 55 9 1 from adc~;
#X text 249 8 2 detection level;
#X obj 191 698 *~ 2;
#X obj 381 41 r ch5selected_duration;
#X obj 247 525 expr ch5selectedsample;
#X obj 318 556 makefilename ch5sample%d;
#X obj 222 232 selectasample_ch5;
#X obj 550 96 selectasample_ch5;
#X obj 190 194 t b b;
#X text 637 6 43 loadbang;
#X connect 0 0 1 0;
#X connect 0 0 6 0;
#X connect 1 0 9 0;
#X connect 1 0 33 0;
#X connect 3 0 0 0;
#X connect 6 0 5 0;
#X connect 7 0 17 0;
#X connect 9 0 26 0;
#X connect 10 0 11 0;
#X connect 10 0 13 0;
#X connect 10 0 25 0;
#X connect 11 0 26 0;
#X connect 15 0 0 1;
#X connect 16 0 0 2;
#X connect 17 0 37 0;
#X connect 18 0 17 1;
#X connect 19 0 18 0;
#X connect 20 0 18 0;
#X connect 21 0 19 0;
#X connect 22 0 19 0;
#X connect 22 0 36 0;
#X connect 23 0 7 0;
#X connect 24 0 7 0;
#X connect 26 0 31 0;
#X connect 31 0 27 0;
#X connect 32 0 21 0;
#X connect 32 0 20 0;
#X connect 33 0 12 0;
#X connect 33 0 34 0;
#X connect 34 0 10 0;
#X connect 35 0 14 0;
#X connect 35 0 0 1;
#X connect 35 1 4 0;
#X connect 35 1 0 2;
#X connect 36 0 15 0;
#X connect 36 1 16 0;
#X connect 37 0 3 0;
#X connect 37 1 35 0;
#X coords 0 -1 1 1 150 60 1 600 550;
#X restore 635 239 pd processandselect_ch5;
#X obj 195 9 adc~ 1 2 3 5;
#X text 290 9 mic input (chnls 1 \, 2 \, 3 & 5), f 16;
#X obj 1006 119 garage_samples_ch5;
#X text 1144 42 bottles;
#X text 1143 68 sandpaper;
#X text 1145 95 metal;
#X text 1144 118 chain;
#X obj 100 201 r bottlelvl;
#X obj 1000 178 cnv 15 220 260 empty empty Set\\\ response\\\ levels
20 12 1 14 #e3c6ff #404040 0;
#X obj 1072 239 s bottlelvl;
#X obj 1075 354 s metallvl;
#X obj 1073 297 s spaperlvl;
#X obj 1076 410 s chainlevel;
#X text 1022 209 Ch. 1;
#X text 1022 380 Ch. 5;
#X text 1022 325 Ch. 3;
#X text 1022 268 Ch. 2;
#X obj 271 201 r spaperlvl;
#X obj 493 201 r metallvl;
#X obj 714 202 r chainlvl;
#X msg 1072 209 minvel 25;
#X msg 1073 267 minvel 60;
#X msg 1075 326 minvel 20;
#X msg 1076 381 minvel 20;
#X connect 0 0 5 2;
#X connect 0 0 3 0;
#X connect 0 0 6 2;
#X connect 0 0 12 0;
#X connect 0 0 14 2;
#X connect 0 0 11 2;
#X connect 0 0 4 0;
#X connect 0 0 17 0;
#X connect 0 0 35 0;
#X connect 0 0 36 0;
#X connect 0 0 37 0;
#X connect 0 0 38 0;
#X connect 1 0 0 0;
#X connect 5 0 9 0;
#X connect 5 0 9 1;
#X connect 6 0 8 0;
#X connect 7 0 5 0;
#X connect 8 0 9 0;
#X connect 8 0 9 1;
#X connect 11 0 9 0;
#X connect 11 0 9 1;
#X connect 14 0 9 0;
#X connect 14 0 9 1;
#X connect 15 0 6 0;
#X connect 15 1 7 0;
#X connect 15 2 11 0;
#X connect 15 3 14 0;
#X connect 22 0 6 1;
#X connect 32 0 5 1;
#X connect 33 0 11 1;
#X connect 34 0 14 1;
#X connect 35 0 24 0;
#X connect 36 0 26 0;
#X connect 37 0 25 0;
#X connect 38 0 27 0;
#X coords 0 47800 50 47750 0 0 0;
