#N canvas 655 208 1171 675 12;
#X obj 40 46 adc~ 1;
#N canvas 0 0 450 300 (subpatch) 0;
#X array sample1 66350 float 2;
#X coords 0 1 66350 -1 200 140 1 0 0;
#X restore 926 40 graph;
#X obj 560 73 soundfiler;
#X floatatom 560 105 8 0 0 0 - - - 0;
#X obj 44 557 *~ 0.7;
#X obj 41 262 bng 15 250 50 0 empty empty empty 17 7 0 10 #fcfcfc #000000
#000000;
#X obj 526 7 bng 15 250 50 0 empty empty empty 17 7 0 10 #fcfcfc #000000
#000000;
#N canvas 0 0 450 300 (subpatch) 0;
#X array sample2 116176 float 2;
#X coords 0 1 116176 -1 200 140 1 0 0;
#X restore 928 201 graph;
#N canvas 0 0 450 300 (subpatch) 0;
#X array sample3 706610 float 2;
#X coords 0 1 706610 -1 200 140 1 0 0;
#X restore 929 364 graph;
#X obj 558 232 soundfiler;
#X floatatom 558 264 8 0 0 0 - - - 0;
#X obj 540 396 soundfiler;
#X floatatom 540 428 8 0 0 0 - - - 0;
#X msg 560 42 read -resize glass_necklace_short_hit.wav sample1;
#X msg 558 201 read -resize nut_drop_roll_medium.wav sample2;
#X msg 540 365 read -resize tape_recorder_long_rhythmic.wav sample3
;
#X obj 43 399 pack f f f;
#X obj 562 140 s endsample1;
#X obj 560 301 s endsample2;
#X obj 539 461 s endsample3;
#X msg 43 459 \$1 \, \$2 \$3;
#X text 118 459 start \, end duration;
#X floatatom 42 364 5 0 0 0 - - - 0;
#X obj 110 354 expr abs($f1 / 44.1);
#X floatatom 267 388 9 0 0 0 - - - 0;
#X obj 43 490 line~;
#X floatatom 118 316 8 0 0 0 - - - 0;
#X obj 368 456 print;
#X text 265 350 calculate duration (CD quality);
#X msg 368 427 \$1 \$2 \$3;
#X obj 40 227 bonk~;
#X msg 53 197 minvel \$1;
#X obj 56 148 hsl 128 15 19 127 0 0 empty empty DETECTION\ LEVEL -2
-8 1 10 #ffe3c6 #000000 #510c72 0 1;
#X floatatom 64 169 5 0 0 0 - - - 0;
#X obj 91 288 r endsample1;
#X obj 44 525 tabread~ sample1;
#X text 554 4 ← CLICK TO LOAD ALL SOUND FILES;
#X text 369 484 check values see console;
#X obj 44 600 dac~ 1;
#X text 97 601 audio output (channel 1);
#X text 104 45 mic input (channel 1);
#X text 539 539 2022-07-19: THIS VERSION PLAYS FULL LENGTH OF SAMPLE
BUT RETRIGGERS WITH EACH OCCURRENCE OF AN ATTACK LOUDER THAN THE THRESHOLD.
HELD NOTES STILL TRIGGER A RESTART;
#X connect 0 0 30 0;
#X connect 2 0 3 0;
#X connect 3 0 17 0;
#X connect 4 0 38 0;
#X connect 5 0 22 0;
#X connect 6 0 13 0;
#X connect 6 0 14 0;
#X connect 6 0 15 0;
#X connect 9 0 10 0;
#X connect 10 0 18 0;
#X connect 11 0 12 0;
#X connect 12 0 19 0;
#X connect 13 0 2 0;
#X connect 14 0 9 0;
#X connect 15 0 11 0;
#X connect 16 0 20 0;
#X connect 16 0 29 0;
#X connect 20 0 25 0;
#X connect 22 0 16 0;
#X connect 23 0 16 2;
#X connect 23 0 24 0;
#X connect 25 0 35 0;
#X connect 29 0 27 0;
#X connect 30 0 5 0;
#X connect 31 0 30 0;
#X connect 32 0 31 0;
#X connect 32 0 33 0;
#X connect 34 0 16 1;
#X connect 34 0 23 0;
#X connect 34 0 26 0;
#X connect 35 0 4 0;
