#N canvas 626 45 1171 865 12;
#X obj 40 46 adc~ 1;
#N canvas 0 0 450 300 (subpatch) 0;
#X array sample1 66350 float 2;
#X coords 0 1 66350 -1 200 140 1 0 0;
#X restore 926 62 graph;
#X obj 560 95 soundfiler;
#X floatatom 560 127 8 0 0 0 - - - 0;
#X obj 52 750 *~ 0.7;
#X obj 41 262 bng 15 250 50 0 empty empty empty 17 7 0 10 #fcfcfc #000000
#000000;
#X obj 526 29 bng 15 250 50 0 empty empty empty 17 7 0 10 #fcfcfc #000000
#000000;
#N canvas 0 0 450 300 (subpatch) 0;
#X array sample2 116176 float 2;
#X coords 0 1 116176 -1 200 140 1 0 0;
#X restore 928 223 graph;
#N canvas 0 0 450 300 (subpatch) 0;
#X array sample3 706610 float 2;
#X coords 0 1 706610 -1 200 140 1 0 0;
#X restore 929 386 graph;
#X obj 558 254 soundfiler;
#X floatatom 558 286 8 0 0 0 - - - 0;
#X obj 540 418 soundfiler;
#X floatatom 540 450 8 0 0 0 - - - 0;
#X msg 560 64 read -resize glass_necklace_short_hit.wav sample1;
#X msg 558 223 read -resize nut_drop_roll_medium.wav sample2;
#X msg 540 387 read -resize tape_recorder_long_rhythmic.wav sample3
;
#X obj 43 399 pack f f f;
#X obj 562 162 s endsample1;
#X obj 560 323 s endsample2;
#X obj 539 483 s endsample3;
#X msg 43 459 \$1 \, \$2 \$3;
#X text 118 459 start \, end duration;
#X floatatom 42 364 5 0 0 0 - - - 0;
#X obj 110 354 expr abs($f1 / 44.1);
#X floatatom 267 388 9 0 0 0 - - - 0;
#X obj 22 603 line~;
#X floatatom 118 316 8 0 0 0 - - - 0;
#X obj 368 456 print;
#X text 265 350 calculate duration (CD quality);
#X msg 368 427 \$1 \$2 \$3;
#X obj 40 227 bonk~;
#X msg 53 197 minvel \$1;
#X obj 56 145 hsl 128 15 0 127 0 0 empty empty DETECTION\ LEVEL -2
-8 1 10 #ffe3c6 #000000 #510c72 0 1;
#X floatatom 64 169 5 0 0 0 - - - 0;
#X obj 91 288 r endsample1;
#X obj 22 632 tabread~ sample1;
#X text 554 26 ← CLICK TO LOAD ALL SOUND FILES;
#X text 363 479 check values see console, f 12;
#X obj 52 793 dac~ 1;
#X text 105 794 audio output (channel 1);
#X text 104 45 mic input (channel 1);
#X obj 109 533 random 3;
#X obj 38 578 sel 0 1 2;
#X floatatom 130 577 5 0 0 0 - - - 0;
#X obj 111 655 tabread~ sample2;
#X obj 232 627 tabread~ sample3;
#X obj 149 619 line~;
#X obj 232 596 line~;
#X obj 49 502 bng 15 250 50 0 empty empty empty 17 7 0 10 #fcfcfc #000000
#000000;
#X text 539 539 2022-07-19: THIS ISN'T WORKING YET - HAVE DISCONNECTED
AT THE POINT WHERE IT BREAKS. THE BOOKMARKED VIDEO I HAVE FOR RANDOM
SOUND SELECTION USES A DIFFERENT PLAYBACK MECHANISM WHERE THE SOUNDS
AREN'T PRELOADED THOUGH.;
#X text 545 618 CAN I: DO THE RANDOM SELECTION EARLIER? USE VARIABLES
IN R AND TABREAD~ OBJECTS? IF SO \, THEN THE BONK COULD TRIGGER THE
RANDOM SELECTION PERHAPS? I THINK I NEED TO LOOK UP HOW TO USE VARIABLES
IN PD - IF I CAN SET A GLOBAL VARIABLE \, I COULD SET BOTH THE FILE
ARRAY NAME AND THE DURATION DIRECTLY AFTER THE BONK \, BUT REUSE A
BUNCH OF THE CODE \, JUST REPLACING THE FILENAME AND DURATION AS NEEDED.
;
#X obj 525 -2 loadbang;
#X msg 52 102 19;
#X obj 52 70 loadbang;
#X connect 0 0 30 0;
#X connect 2 0 3 0;
#X connect 3 0 17 0;
#X connect 4 0 38 0;
#X connect 5 0 22 0;
#X connect 6 0 13 0;
#X connect 6 0 14 0;
#X connect 6 0 15 0;
#X connect 9 0 10 0;
#X connect 10 0 18 0;
#X connect 11 0 12 0;
#X connect 12 0 19 0;
#X connect 13 0 2 0;
#X connect 14 0 9 0;
#X connect 15 0 11 0;
#X connect 16 0 20 0;
#X connect 16 0 29 0;
#X connect 22 0 16 0;
#X connect 23 0 16 2;
#X connect 23 0 24 0;
#X connect 25 0 35 0;
#X connect 29 0 27 0;
#X connect 30 0 5 0;
#X connect 31 0 30 0;
#X connect 32 0 31 0;
#X connect 32 0 33 0;
#X connect 34 0 16 1;
#X connect 34 0 23 0;
#X connect 34 0 26 0;
#X connect 35 0 4 0;
#X connect 41 0 42 0;
#X connect 41 0 43 0;
#X connect 42 0 25 0;
#X connect 42 1 46 0;
#X connect 42 2 47 0;
#X connect 44 0 4 0;
#X connect 45 0 4 0;
#X connect 46 0 44 0;
#X connect 47 0 45 0;
#X connect 48 0 41 0;
#X connect 51 0 6 0;
#X connect 52 0 32 0;
#X connect 53 0 52 0;
