#N canvas 50 86 1664 865 12;
#N canvas 0 0 450 300 (subpatch) 0;
#X array sample1 66350 float 2;
#X coords 0 1 66350 -1 200 140 1 0 0;
#X restore 1415 84 graph;
#X obj 1049 117 soundfiler;
#X floatatom 1049 149 8 0 0 0 - - - 0;
#X obj 41 262 bng 15 250 50 0 empty empty empty 17 7 0 10 #fcfcfc #000000
#000000;
#X obj 1015 51 bng 15 250 50 0 empty empty empty 17 7 0 10 #fcfcfc
#000000 #000000;
#N canvas 0 0 450 300 (subpatch) 0;
#X array sample2 116176 float 2;
#X coords 0 1 116176 -1 200 140 1 0 0;
#X restore 1417 245 graph;
#N canvas 0 0 450 300 (subpatch) 0;
#X array sample3 706610 float 2;
#X coords 0 1 706610 -1 200 140 1 0 0;
#X restore 1418 408 graph;
#X obj 1047 276 soundfiler;
#X floatatom 1047 308 8 0 0 0 - - - 0;
#X obj 1029 440 soundfiler;
#X floatatom 1029 472 8 0 0 0 - - - 0;
#X msg 1049 86 read -resize glass_necklace_short_hit.wav sample1;
#X msg 1047 245 read -resize nut_drop_roll_medium.wav sample2;
#X msg 1029 409 read -resize tape_recorder_long_rhythmic.wav sample3
;
#X obj 43 399 pack f f f;
#X obj 1051 184 s endsample1;
#X obj 1049 345 s endsample2;
#X obj 1028 505 s endsample3;
#X msg 43 539 \$1 \, \$2 \$3;
#X text 118 539 start \, end duration;
#X floatatom 42 364 5 0 0 0 - - - 0;
#X obj 95 344 expr abs($f1 / 44.1);
#X floatatom 137 400 9 0 0 0 - - - 0;
#X obj 60 460 print;
#X text 139 421 calculate duration (CD quality), f 18;
#X msg 60 431 \$1 \$2 \$3;
#X obj 40 227 bonk~;
#X msg 53 197 minvel \$1;
#X obj 56 145 hsl 128 15 0 127 0 0 empty empty DETECTION\\\ LEVEL -2
-8 1 10 #ffe3c6 #000000 #510c72 0 1;
#X floatatom 64 169 5 0 0 0 - - - 0;
#X text 1043 48 ← CLICK TO LOAD ALL SOUND FILES;
#X text 55 483 check values see console, f 12;
#X obj 304 109 random 3;
#X floatatom 303 156 5 1 3 0 - - - 0;
#X obj 43 684 line~;
#X obj 1014 20 loadbang;
#X obj 52 70 loadbang;
#X obj 170 605 makefilename sample%d;
#X obj 514 28 r endsample1;
#X obj 514 60 v dur1;
#X obj 614 27 r endsample2;
#X obj 614 59 v dur2;
#X obj 712 27 r endsample3;
#X obj 712 59 v dur3;
#X floatatom 616 87 9 0 0 0 - - - 0;
#X floatatom 513 88 9 0 0 0 - - - 0;
#X floatatom 713 89 9 0 0 0 - - - 0;
#X obj 170 637 symbol file;
#X obj 304 132 + 1;
#X obj 218 198 select 1 2 3;
#X obj 42 743 tabread~;
#X msg 93 683 set \$1;
#X obj 215 229 bng 15 250 50 0 empty empty empty 17 7 0 10 #fcfcfc
#000000 #000000;
#X obj 253 229 bng 15 250 50 0 empty empty empty 17 7 0 10 #fcfcfc
#000000 #000000;
#X obj 313 231 bng 15 250 50 0 empty empty empty 17 7 0 10 #fcfcfc
#000000 #000000;
#X obj 164 254 expr dur1;
#X obj 237 253 expr dur2;
#X obj 314 253 expr dur3;
#X floatatom 248 297 9 0 0 0 - - - 0;
#X obj 329 187 v selectedsample;
#X obj 99 569 expr selectedsample;
#X floatatom 116 605 5 0 0 0 - - - 0;
#X text 458 187 number of the randomly selected sample, f 23;
#X text 247 569 retrieve current sample number to make sample name
;
#X obj 41 820 dac~ 1 2;
#X text 110 820 audio output (channel 1 & 2 - check Bela pin chart
for correct numbers - I'm guessing these ATM);
#X obj 194 674 print;
#X text 118 62 THIS LOADBANG MAY NEED TO CHANGE TO BE TRIGGERED VIA
SENSOR, f 32;
#X obj 41 778 *~ 3;
#X text 104 45 mic input (channels 1 & 2);
#X obj 40 46 adc~ 1 2;
#X msg 808 210 new touchbar 1 BAR;
#X obj 808 252 s bela_setTrill;
#X obj 772 331 r bela_trill;
#X obj 772 377 route touchbar;
#X obj 697 230 metro 200;
#X obj 697 424 list;
#X text 830 189 initialise sensor;
#X text 768 306 read sensor data stream;
#X msg 52 102 64;
#X obj 696 465 print touchbar;
#X obj 630 455 route 1;
#X obj 669 578 print afterroute;
#X msg 630 485 \$1;
#X obj 630 517 * 127;
#X text 512 413 if 1 touch \, use position to set detection level,
f 24;
#X text 827 585 2022-July-20: CONNECTING LOADBANG TO THE RANDOM GETS
AROUND THE NO SOUND ON FIRST DETECTION PROBLEM - BUT THE RANDOM NOW
SHOWS THE NEXT SAMPLE IN LINE \, IT'S NOT PUSHING IT THROUGH STRAIGHT
AWAY \, SO THERE'S SOME SORT OF ORDERING ISSUE HAPPENING THAT I NEED
TO ADDRESS HERE. BUT IT'S WORKING ON LOAD AT THE MOMENT \, SO IT SEEMS
LIKE A GOOD IDEA TO TEST IT WITH THE CONTACT MIC AND ON THE BELA. 2022-July-22:
LOADING SOUNDS TRIGGER THE FIRST SOUND ON BELA REGARDLESS UNLESS THE
SENSITIVITY IS SET VERY HIGH. ADDING TRILL SENSOR TO CONTROL DETECTION
LEVEL SHOULD CORRECT THIS \, I THINK - NEED TO TEST. ALSO SHOULD BE
ABLE TO PLACE STICKY DOTS IN THE APPROPRIATE PLACES FOR THE CIRCUMSTANCES
\, THEORETICALLY AT LEAST ALLOWING FOR ADJUSTING SENSITIVITY LEVELS
DURING THE PERFORMANCE?;
#X obj 72 275 print bonked;
#X obj 145 176 print \$1;
#X connect 1 0 2 0;
#X connect 2 0 15 0;
#X connect 3 0 20 0;
#X connect 3 0 32 0;
#X connect 4 0 11 0;
#X connect 4 0 12 0;
#X connect 4 0 13 0;
#X connect 4 0 43 0;
#X connect 4 0 41 0;
#X connect 4 0 39 0;
#X connect 7 0 8 0;
#X connect 8 0 16 0;
#X connect 9 0 10 0;
#X connect 10 0 17 0;
#X connect 11 0 1 0;
#X connect 12 0 7 0;
#X connect 13 0 9 0;
#X connect 14 0 18 0;
#X connect 14 0 25 0;
#X connect 18 0 60 0;
#X connect 18 0 34 0;
#X connect 20 0 14 0;
#X connect 21 0 14 2;
#X connect 21 0 22 0;
#X connect 25 0 23 0;
#X connect 26 0 3 0;
#X connect 26 0 87 0;
#X connect 27 0 26 0;
#X connect 28 0 27 0;
#X connect 28 0 29 0;
#X connect 29 0 88 0;
#X connect 32 0 48 0;
#X connect 33 0 59 0;
#X connect 33 0 49 0;
#X connect 34 0 50 0;
#X connect 35 0 4 0;
#X connect 35 0 71 0;
#X connect 35 0 75 0;
#X connect 36 0 79 0;
#X connect 36 0 32 0;
#X connect 37 0 47 0;
#X connect 38 0 39 0;
#X connect 39 0 45 0;
#X connect 40 0 41 0;
#X connect 41 0 44 0;
#X connect 42 0 43 0;
#X connect 43 0 46 0;
#X connect 47 0 51 0;
#X connect 47 0 66 0;
#X connect 48 0 33 0;
#X connect 49 0 52 0;
#X connect 49 1 53 0;
#X connect 49 2 54 0;
#X connect 50 0 68 0;
#X connect 51 0 50 0;
#X connect 52 0 55 0;
#X connect 53 0 56 0;
#X connect 54 0 57 0;
#X connect 55 0 58 0;
#X connect 56 0 58 0;
#X connect 57 0 58 0;
#X connect 58 0 21 0;
#X connect 58 0 14 1;
#X connect 60 0 37 0;
#X connect 60 0 61 0;
#X connect 68 0 64 0;
#X connect 70 0 26 0;
#X connect 71 0 72 0;
#X connect 73 0 74 0;
#X connect 74 0 76 1;
#X connect 75 0 76 0;
#X connect 76 0 80 0;
#X connect 76 0 81 0;
#X connect 79 0 28 0;
#X connect 81 0 83 0;
#X connect 83 0 84 0;
#X connect 84 0 82 0;
#X connect 84 0 28 0;
