#N canvas 550 19 1308 956 12;
#X obj 512 47 bng 15 250 50 0 empty empty empty 17 7 0 10 #fcfcfc #000000
#000000;
#X obj 512 16 loadbang;
#X obj 198 586 dac~ 1 2;
#N canvas -142 42 1620 956 readtouchbar 0;
#X obj 197 16 inlet;
#X obj 74 407 outlet;
#X msg 308 37 new touchbar 1 BAR;
#X obj 308 79 s bela_setTrill;
#X obj 272 158 r bela_trill;
#X obj 272 204 route touchbar;
#X obj 197 57 metro 200;
#X obj 197 251 list;
#X text 330 16 initialise sensor;
#X text 268 133 read sensor data stream;
#X obj 196 292 print touchbar;
#X obj 130 282 route 1;
#X obj 169 405 print afterroute;
#X msg 130 312 \$1;
#X obj 130 344 * 127;
#X text 12 240 if 1 touch \, use position to set detection level,
f 24;
#X obj 164 135 bng 15 250 50 0 empty empty slow\\\ down -60 7 0 10
#fcfcfc #000000 #000000;
#X msg 218 110 2000;
#X connect 0 0 6 0;
#X connect 0 0 2 0;
#X connect 2 0 3 0;
#X connect 4 0 5 0;
#X connect 5 0 7 1;
#X connect 6 0 7 0;
#X connect 7 0 10 0;
#X connect 7 0 11 0;
#X connect 11 0 13 0;
#X connect 13 0 14 0;
#X connect 14 0 12 0;
#X connect 14 0 1 0;
#X connect 16 0 17 0;
#X connect 17 0 6 1;
#X coords 0 -1 1 1 85 60 1 100 100;
#X restore 512 71 pd readtouchbar;
#X obj 197 538 pitchshift;
#X obj 199 463 tabread4~;
#X obj 198 498 *~ 10;
#X text 267 586 audio output;
#X text 282 538 uses 'transpose' value;
#X obj 195 9 adc~ 1 2 3 4;
#X text 290 9 mic input (chnls 1 \, 2 \, 3 & 4), f 16;
#N canvas 90 236 450 300 detectlevel 0;
#X msg 39 219 minvel \$1;
#X obj 110 119 hsl 128 15 0 127 0 0 empty empty DETECTION\\\ LEVEL
-2 -8 1 10 #ffe3c6 #000000 #510c72 0 1;
#X floatatom 246 116 5 0 0 2 (display\ only) - - 0;
#X obj 37 24 loadbang;
#X msg 37 56 64;
#X obj 246 161 print \$1;
#X obj 199 49 inlet;
#X text 242 49 from readtouchbar;
#X obj 39 254 outlet;
#X text 92 255 to bonk~;
#X connect 0 0 8 0;
#X connect 1 0 0 0;
#X connect 1 0 2 0;
#X connect 2 0 5 0;
#X connect 3 0 4 0;
#X connect 4 0 1 0;
#X connect 6 0 1 0;
#X coords 0 -1 1 1 250 40 2 100 100;
#X restore 512 147 pd detectlevel;
#X obj 783 15 cnv 15 200 200 empty empty Sample\\\ initialisation 20
12 1 14 #feffc6 #404040 0;
#X obj 795 44 garage_samples_ch1;
#X obj 796 69 garage_samples_ch2;
#N canvas 573 125 972 855 processandselect_ch2 0;
#X obj 195 225 bng 15 250 50 0 empty empty empty 17 7 0 10 #fcfcfc
#000000 #000000;
#X obj 195 318 pack f f f;
#X msg 196 455 \$1 \, \$2 \$3;
#X text 271 455 start \, end duration;
#X floatatom 195 283 5 0 0 0 - - - 0;
#X floatatom 294 228 9 0 0 3 duration\ in\ ms - ch2selected_duration
0;
#X obj 212 379 print;
#X msg 212 350 \$1 \$2 \$3;
#X obj 190 107 bonk~;
#X text 207 402 check values see console, f 12;
#X obj 196 576 line~;
#X obj 323 548 symbol file;
#X msg 246 575 set \$1;
#X floatatom 269 516 5 0 0 0 - - - 0;
#X obj 347 584 print;
#X floatatom 228 229 8 0 0 3 end - - 0;
#X floatatom 550 135 7 0 0 3 end - - 0;
#X floatatom 638 134 8 0 0 3 duration\ in\ ms - - 0;
#X obj 190 161 spigot;
#X obj 229 132 tgl 15 0 empty empty delay\\\ bonk 17 7 0 10 #fcfcfc
#000000 #000000 0 1;
#X msg 250 106 1;
#X msg 315 113 0;
#X obj 252 75 delay 1000 1 msec;
#X floatatom 12 227 5 0 0 3 transpose - transpose 0;
#N canvas 791 399 716 500 transposefromvelocity 0;
#X obj 18 17 inlet~;
#X floatatom 19 120 5 0 0 0 - - - 0;
#X obj 18 377 spigot;
#X obj 74 348 tgl 15 0 empty empty empty 17 7 0 10 #fcfcfc #000000
#000000 0 1;
#X msg 135 320 0;
#X obj 19 54 env~ 200 500;
#N canvas 548 216 970 499 scaler 0;
#X obj 30 26 inlet;
#X obj 30 98 -;
#X obj 30 224 /;
#X obj 30 285 *;
#X obj 30 345 +;
#X obj 30 365 outlet;
#X obj 70 26 inlet;
#X obj 70 83 t a a;
#X obj 115 26 inlet;
#X obj 97 169 pack f f;
#X msg 97 189 \$1 \$2;
#X obj 97 209 -;
#X obj 115 136 t b a;
#X obj 160 26 inlet;
#X obj 160 188 t a a;
#X obj 205 26 inlet;
#X obj 187 230 pack f f;
#X msg 187 250 \$1 \$2;
#X obj 187 270 -;
#X obj 205 197 t b a;
#X obj 275 26 loadbang;
#X obj 275 46 t b b b b;
#X obj 77 61 f \$1;
#X obj 212 175 f \$4;
#X obj 167 166 f \$3;
#X obj 122 114 f \$2;
#X text 26 414 abstraction by erash from this thread: https://forum.pdpatchrepo.info/topic/6813/creating-scale-or-range/3
, f 71;
#X text 395 46 1 number input;
#X text 395 67 2 old low value;
#X text 395 89 3 old high value;
#X text 396 112 4 new low value;
#X text 397 133 5 new high value;
#X text 394 26 inlets from left to right:;
#X connect 0 0 1 0;
#X connect 1 0 2 0;
#X connect 2 0 3 0;
#X connect 3 0 4 0;
#X connect 4 0 5 0;
#X connect 6 0 7 0;
#X connect 7 0 1 1;
#X connect 7 1 9 0;
#X connect 8 0 12 0;
#X connect 9 0 10 0;
#X connect 10 0 11 0;
#X connect 11 0 2 1;
#X connect 12 0 9 0;
#X connect 12 1 9 1;
#X connect 13 0 14 0;
#X connect 14 0 16 0;
#X connect 14 1 4 1;
#X connect 15 0 19 0;
#X connect 16 0 17 0;
#X connect 17 0 18 0;
#X connect 18 0 3 1;
#X connect 19 0 16 0;
#X connect 19 1 16 1;
#X connect 20 0 21 0;
#X connect 21 0 22 0;
#X connect 21 1 25 0;
#X connect 21 2 24 0;
#X connect 21 3 23 0;
#X connect 22 0 7 0;
#X connect 23 0 19 0;
#X connect 24 0 14 0;
#X connect 25 0 12 0;
#X restore 18 241 pd scaler;
#X floatatom 74 101 5 0 0 0 - - - 0;
#X msg 74 173 80;
#X msg 121 170 0;
#X floatatom 18 298 5 0 0 0 - - - 0;
#X obj 7 154 moses 64;
#X msg 157 202 4;
#X obj 157 86 loadbang;
#X obj 100 262 inlet;
#X obj 135 290 inlet;
#X obj 18 424 outlet;
#X text 250 24 inlet 1: mic signal;
#X text 249 262 inlet 2: float value (1) from delay;
#X text 250 292 inlet 3: spigot triggers 0 message to prevent changing
transposition while sound is playing;
#X text 258 422 outlet sends transpose value to transpose float box
(sends to pitchshift abstraction);
#X connect 0 0 5 0;
#X connect 1 0 11 0;
#X connect 2 0 16 0;
#X connect 3 0 2 1;
#X connect 4 0 3 0;
#X connect 5 0 1 0;
#X connect 6 0 10 0;
#X connect 7 0 8 0;
#X connect 8 0 6 2;
#X connect 9 0 6 3;
#X connect 10 0 2 0;
#X connect 11 1 6 0;
#X connect 12 0 6 4;
#X connect 13 0 8 0;
#X connect 13 0 9 0;
#X connect 13 0 12 0;
#X connect 14 0 3 0;
#X connect 15 0 4 0;
#X restore 12 191 pd transposefromvelocity;
#X obj 550 11 inlet;
#X text 594 11 loadbang;
#X obj 189 58 inlet~;
#X text 116 59 from adc~;
#X obj 264 7 inlet;
#X text 308 7 detection level;
#X obj 197 624 outlet~;
#X obj 323 516 makefilename ch2sample%d;
#X symbolatom 609 582 18 0 0 0 - - - 0;
#X obj 252 485 expr ch2selectedsample;
#X obj 257 624 outlet;
#X text 311 626 both to tabread4~;
#X obj 208 192 selectasample_ch2;
#X text 366 225 s ch2selected_duration;
#X obj 550 96 selectasample_ch2;
#X obj 381 41 r ch2selected_duration;
#X connect 0 0 4 0;
#X connect 1 0 2 0;
#X connect 1 0 7 0;
#X connect 2 0 10 0;
#X connect 2 0 34 0;
#X connect 4 0 1 0;
#X connect 7 0 6 0;
#X connect 8 0 18 0;
#X connect 10 0 31 0;
#X connect 11 0 12 0;
#X connect 11 0 14 0;
#X connect 11 0 33 0;
#X connect 12 0 35 0;
#X connect 16 0 1 1;
#X connect 17 0 1 2;
#X connect 18 0 24 2;
#X connect 18 0 37 0;
#X connect 19 0 18 1;
#X connect 20 0 19 0;
#X connect 20 0 24 1;
#X connect 21 0 19 0;
#X connect 22 0 20 0;
#X connect 24 0 23 0;
#X connect 25 0 20 0;
#X connect 25 0 39 0;
#X connect 27 0 8 0;
#X connect 27 0 24 0;
#X connect 29 0 8 0;
#X connect 32 0 11 0;
#X connect 34 0 13 0;
#X connect 34 0 32 0;
#X connect 37 0 0 0;
#X connect 37 0 15 0;
#X connect 37 0 1 1;
#X connect 37 1 5 0;
#X connect 37 1 1 2;
#X connect 39 0 16 0;
#X connect 39 1 17 0;
#X connect 40 0 22 0;
#X connect 40 0 21 0;
#X coords 0 -1 1 1 150 60 1 600 550;
#X restore 192 239 pd processandselect_ch2;
#N canvas 573 125 972 855 processandselect_ch1 0;
#X obj 195 225 bng 15 250 50 0 empty empty empty 17 7 0 10 #fcfcfc
#000000 #000000;
#X obj 195 318 pack f f f;
#X msg 196 455 \$1 \, \$2 \$3;
#X text 271 455 start \, end duration;
#X floatatom 195 283 5 0 0 0 - - - 0;
#X floatatom 294 228 9 0 0 3 duration\ in\ ms - selected_duration 0
;
#X obj 212 379 print;
#X msg 212 350 \$1 \$2 \$3;
#X obj 190 107 bonk~;
#X text 207 402 check values see console, f 12;
#X obj 196 576 line~;
#X obj 323 548 symbol file;
#X msg 246 575 set \$1;
#X floatatom 269 516 5 0 0 0 - - - 0;
#X obj 347 584 print;
#X floatatom 228 229 8 0 0 3 end - - 0;
#X floatatom 550 135 7 0 0 3 end - - 0;
#X floatatom 638 134 8 0 0 3 duration\ in\ ms - - 0;
#X obj 190 161 spigot;
#X obj 229 132 tgl 15 0 empty empty delay\\\ bonk 17 7 0 10 #fcfcfc
#000000 #000000 0 1;
#X msg 250 106 1;
#X msg 315 113 0;
#X obj 252 75 delay 1000 1 msec;
#X obj 381 41 r selected_duration;
#X floatatom 12 227 5 0 0 3 transpose - transpose 0;
#N canvas 791 399 716 500 transposefromvelocity 0;
#X obj 18 17 inlet~;
#X floatatom 19 120 5 0 0 0 - - - 0;
#X obj 18 377 spigot;
#X obj 74 348 tgl 15 0 empty empty empty 17 7 0 10 #fcfcfc #000000
#000000 0 1;
#X msg 135 320 0;
#X obj 19 54 env~ 200 500;
#N canvas 548 216 970 499 scaler 0;
#X obj 30 26 inlet;
#X obj 30 98 -;
#X obj 30 224 /;
#X obj 30 285 *;
#X obj 30 345 +;
#X obj 30 365 outlet;
#X obj 70 26 inlet;
#X obj 70 83 t a a;
#X obj 115 26 inlet;
#X obj 97 169 pack f f;
#X msg 97 189 \$1 \$2;
#X obj 97 209 -;
#X obj 115 136 t b a;
#X obj 160 26 inlet;
#X obj 160 188 t a a;
#X obj 205 26 inlet;
#X obj 187 230 pack f f;
#X msg 187 250 \$1 \$2;
#X obj 187 270 -;
#X obj 205 197 t b a;
#X obj 275 26 loadbang;
#X obj 275 46 t b b b b;
#X obj 77 61 f \$1;
#X obj 212 175 f \$4;
#X obj 167 166 f \$3;
#X obj 122 114 f \$2;
#X text 26 414 abstraction by erash from this thread: https://forum.pdpatchrepo.info/topic/6813/creating-scale-or-range/3
, f 71;
#X text 395 46 1 number input;
#X text 395 67 2 old low value;
#X text 395 89 3 old high value;
#X text 396 112 4 new low value;
#X text 397 133 5 new high value;
#X text 394 26 inlets from left to right:;
#X connect 0 0 1 0;
#X connect 1 0 2 0;
#X connect 2 0 3 0;
#X connect 3 0 4 0;
#X connect 4 0 5 0;
#X connect 6 0 7 0;
#X connect 7 0 1 1;
#X connect 7 1 9 0;
#X connect 8 0 12 0;
#X connect 9 0 10 0;
#X connect 10 0 11 0;
#X connect 11 0 2 1;
#X connect 12 0 9 0;
#X connect 12 1 9 1;
#X connect 13 0 14 0;
#X connect 14 0 16 0;
#X connect 14 1 4 1;
#X connect 15 0 19 0;
#X connect 16 0 17 0;
#X connect 17 0 18 0;
#X connect 18 0 3 1;
#X connect 19 0 16 0;
#X connect 19 1 16 1;
#X connect 20 0 21 0;
#X connect 21 0 22 0;
#X connect 21 1 25 0;
#X connect 21 2 24 0;
#X connect 21 3 23 0;
#X connect 22 0 7 0;
#X connect 23 0 19 0;
#X connect 24 0 14 0;
#X connect 25 0 12 0;
#X restore 18 241 pd scaler;
#X floatatom 74 101 5 0 0 0 - - - 0;
#X msg 74 173 80;
#X msg 121 170 0;
#X floatatom 18 298 5 0 0 0 - - - 0;
#X obj 7 154 moses 64;
#X msg 157 202 4;
#X obj 157 86 loadbang;
#X obj 100 262 inlet;
#X obj 135 290 inlet;
#X obj 18 424 outlet;
#X text 250 24 inlet 1: mic signal;
#X text 249 262 inlet 2: float value (1) from delay;
#X text 250 292 inlet 3: spigot triggers 0 message to prevent changing
transposition while sound is playing;
#X text 258 422 outlet sends transpose value to transpose float box
(sends to pitchshift abstraction);
#X connect 0 0 5 0;
#X connect 1 0 11 0;
#X connect 2 0 16 0;
#X connect 3 0 2 1;
#X connect 4 0 3 0;
#X connect 5 0 1 0;
#X connect 6 0 10 0;
#X connect 7 0 8 0;
#X connect 8 0 6 2;
#X connect 9 0 6 3;
#X connect 10 0 2 0;
#X connect 11 1 6 0;
#X connect 12 0 6 4;
#X connect 13 0 8 0;
#X connect 13 0 9 0;
#X connect 13 0 12 0;
#X connect 14 0 3 0;
#X connect 15 0 4 0;
#X restore 12 191 pd transposefromvelocity;
#X obj 550 11 inlet;
#X text 594 11 loadbang;
#X obj 189 58 inlet~;
#X text 116 59 from adc~;
#X obj 264 7 inlet;
#X text 308 7 detection level;
#X obj 197 624 outlet~;
#X symbolatom 609 582 18 0 0 0 - - - 0;
#X obj 257 624 outlet;
#X text 311 626 both to tabread4~;
#X obj 550 96 selectasample;
#X obj 208 192 selectasample;
#X text 366 225 s selected_duration;
#X obj 252 485 expr selectedsample;
#X obj 323 516 makefilename sample%d;
#X connect 0 0 4 0;
#X connect 1 0 2 0;
#X connect 1 0 7 0;
#X connect 2 0 10 0;
#X connect 2 0 39 0;
#X connect 4 0 1 0;
#X connect 7 0 6 0;
#X connect 8 0 18 0;
#X connect 10 0 32 0;
#X connect 11 0 12 0;
#X connect 11 0 14 0;
#X connect 11 0 33 0;
#X connect 12 0 34 0;
#X connect 16 0 1 1;
#X connect 17 0 1 2;
#X connect 18 0 25 2;
#X connect 18 0 37 0;
#X connect 19 0 18 1;
#X connect 20 0 19 0;
#X connect 20 0 25 1;
#X connect 21 0 19 0;
#X connect 22 0 20 0;
#X connect 23 0 22 0;
#X connect 23 0 21 0;
#X connect 25 0 24 0;
#X connect 26 0 20 0;
#X connect 26 0 36 0;
#X connect 28 0 8 0;
#X connect 28 0 25 0;
#X connect 30 0 8 0;
#X connect 36 0 16 0;
#X connect 36 1 17 0;
#X connect 37 0 0 0;
#X connect 37 0 15 0;
#X connect 37 0 1 1;
#X connect 37 1 5 0;
#X connect 37 1 1 2;
#X connect 39 0 13 0;
#X connect 39 0 40 0;
#X connect 40 0 11 0;
#X coords 0 -1 1 1 150 60 1 600 550;
#X restore 21 239 pd processandselect_ch1;
#X text 614 375 7 Aug 2022: NEED TO TEST THIS ON THE BELA NOW - INDIVIDUAL
CHANNELS ARE BEING PROCESSED CORRECTLY AND WITHOUT ERRORS (I BELIEVE)
WHEN ACCESSED FROM CHANNEL 1 (BECAUSE ON THE LAPTOP) - NOW NEED TO
TEST WITH MULTIPLE MICS TO SEE IF IT'S PROCESSING MULTIPLE STREAMS
OF AUDIO CORRECTLY.;
#X text 618 467 ONE THING TO NOTE IS THAT I HAVEN'T DIFFERENTIATED
BETWEEN ROUNDS OF RANDOM NUMBER GENERATION - THE NUMBER GENERATES AND
JUST USES THE SAME ABSTRACTION WITH THE SAME VARIABLE - WILL THIS LEAD
TO ALL CHANNELS USING THE SAME SEQUENCE \, OR WILL IT JUST GENERATE
A DIFFERENT RANDOM NUMBER EACH TIME IT'S ACCESSED? OR IF I TAP SNAKE
\, DOLL \, TEAPOT \, WILL I - SAY - ALWAYS GET 2-3-1 BECAUSE IT'S PROCESSING
THE DON'T-DUPLICATE-SOUNDS PART ACROSS ALL THE SIGNALS BEING RECEIVED?
SUSPECT IT MIGHT. MIGHT NEED TO MAKE THIS A SUBPATH INSTEAD OF AN ABSTRACTION
AND JUST CUSTOMISE THE VARIABLES LIKE I HAVE FOR PROCESSANDSELECT.
;
#X text 622 639 ALSO: I SEEM TO ONCE AGAIN HAVE THAT PROBLEM WHERE
AN INITIAL SAMPLE ISN'T BEING SELECTED AND THE FIRST TRIGGER THEN DOESN'T
PLAY A SOUND. INVESTIGATE.;
#X connect 0 0 3 0;
#X connect 0 0 15 2;
#X connect 0 0 13 0;
#X connect 0 0 14 0;
#X connect 0 0 16 2;
#X connect 1 0 0 0;
#X connect 3 0 11 0;
#X connect 4 0 2 0;
#X connect 4 0 2 1;
#X connect 5 0 6 0;
#X connect 6 0 4 0;
#X connect 9 0 16 0;
#X connect 9 1 15 0;
#X connect 11 0 15 1;
#X connect 11 0 16 1;
#X connect 15 0 5 0;
#X connect 15 1 5 0;
#X connect 16 0 5 0;
#X connect 16 1 5 0;
#X coords 0 47800 50 47750 0 0 0;
