#N canvas 14 58 1357 753 12;
#N canvas 0 0 450 300 (subpatch) 0;
#X array ch4sample1 1.6758e+06 float 2;
#X coords 0 1 1.6758e+06 -1 200 140 1 0 0;
#X restore 629 175 graph;
#X obj 487 166 soundfiler;
#X floatatom 487 198 8 0 0 0 - - - 0;
#N canvas 0 0 450 300 (subpatch) 0;
#X array ch4sample2 1.34161e+06 float 2;
#X coords 0 1 1.34161e+06 -1 200 140 1 0 0;
#X restore 631 366 graph;
#N canvas 0 0 450 300 (subpatch) 0;
#X array ch4sample3 1.22555e+06 float 2;
#X coords 0 1 1.22555e+06 -1 200 140 1 0 0;
#X restore 632 559 graph;
#X obj 485 355 soundfiler;
#X floatatom 485 387 8 0 0 0 - - - 0;
#X obj 484 549 soundfiler;
#X floatatom 484 581 8 0 0 0 - - - 0;
#X floatatom 157 262 9 0 0 0 - - - 0;
#X floatatom 34 263 9 0 0 0 - - - 0;
#X floatatom 276 264 9 0 0 0 - - - 0;
#X obj 429 20 inlet;
#X text 476 19 loadbang;
#X obj 35 203 r ch4endsample1;
#X obj 35 235 v ch4dur1;
#X obj 155 202 r ch4endsample2;
#X obj 155 234 v ch4dur2;
#X obj 275 202 r ch4endsample3;
#X obj 275 234 v ch4dur3;
#X obj 489 233 s ch4endsample1;
#X obj 487 424 s ch4endsample2;
#X obj 483 614 s ch4endsample3;
#X floatatom 179 382 9 0 0 0 - - - 0;
#X floatatom 56 383 9 0 0 0 - - - 0;
#X floatatom 298 384 9 0 0 0 - - - 0;
#X obj 57 323 r ch4endsample4;
#X obj 57 355 v ch4dur4;
#X obj 177 322 r ch4endsample5;
#X obj 177 354 v ch4dur5;
#X obj 297 322 r ch4endsample6;
#X obj 297 354 v ch4dur6;
#N canvas 0 0 450 300 (subpatch) 0;
#X array ch4sample4 372736 float 2;
#X coords 0 1 372736 -1 200 140 1 0 0;
#X restore 1077 175 graph;
#X obj 935 166 soundfiler;
#X floatatom 935 198 8 0 0 0 - - - 0;
#N canvas 0 0 450 300 (subpatch) 0;
#X array ch4sample5 95232 float 2;
#X coords 0 1 95232 -1 200 140 1 0 0;
#X restore 1079 366 graph;
#N canvas 0 0 450 300 (subpatch) 0;
#X array ch4sample6 2665 float 2;
#X coords 0 1 2665 -1 200 140 1 0 0;
#X restore 1080 559 graph;
#X obj 933 355 soundfiler;
#X floatatom 933 387 8 0 0 0 - - - 0;
#X obj 932 549 soundfiler;
#X floatatom 932 581 8 0 0 0 - - - 0;
#X obj 931 614 s ch4endsample3;
#X obj 937 233 s ch4endsample4;
#X obj 935 424 s ch4endsample5;
#X msg 487 135 read -resize kids_maaameee_single.wav ch4sample1;
#X msg 485 324 read -resize kids_screamingtalking_single.wav ch4sample2
;
#X msg 483 518 read -resize kids_aaoaah_single.wav ch4sample3;
#X msg 935 135 read -resize sandpaper1.wav ch4sample4;
#X msg 933 324 read -resize sandpaper2.wav ch4sample5;
#X msg 932 518 read -resize sandpaper3.wav ch4sample6;
#X connect 1 0 2 0;
#X connect 2 0 20 0;
#X connect 5 0 6 0;
#X connect 6 0 21 0;
#X connect 7 0 8 0;
#X connect 8 0 22 0;
#X connect 12 0 44 0;
#X connect 12 0 45 0;
#X connect 12 0 46 0;
#X connect 12 0 15 0;
#X connect 12 0 17 0;
#X connect 12 0 19 0;
#X connect 12 0 27 0;
#X connect 12 0 29 0;
#X connect 12 0 31 0;
#X connect 12 0 47 0;
#X connect 12 0 48 0;
#X connect 12 0 49 0;
#X connect 14 0 15 0;
#X connect 15 0 10 0;
#X connect 16 0 17 0;
#X connect 17 0 9 0;
#X connect 18 0 19 0;
#X connect 19 0 11 0;
#X connect 26 0 27 0;
#X connect 27 0 24 0;
#X connect 28 0 29 0;
#X connect 29 0 23 0;
#X connect 30 0 31 0;
#X connect 31 0 25 0;
#X connect 33 0 34 0;
#X connect 34 0 42 0;
#X connect 37 0 38 0;
#X connect 38 0 43 0;
#X connect 39 0 40 0;
#X connect 40 0 41 0;
#X connect 44 0 1 0;
#X connect 45 0 5 0;
#X connect 46 0 7 0;
#X connect 47 0 33 0;
#X connect 48 0 37 0;
#X connect 49 0 39 0;
