#N canvas 317 398 1553 551 12;
#N canvas 0 0 450 300 (subpatch) 0;
#X array ch3sample1 381952 float 2;
#X coords 0 1 381952 -1 200 140 1 0 0;
#X restore 880 24 graph;
#X obj 469 58 soundfiler;
#X floatatom 469 90 8 0 0 0 - - - 0;
#N canvas 0 0 450 300 (subpatch) 0;
#X array ch3sample2 87040 float 2;
#X coords 0 1 87040 -1 200 140 1 0 0;
#X restore 882 185 graph;
#N canvas 0 0 450 300 (subpatch) 0;
#X array ch3sample3 235520 float 2;
#X coords 0 1 235520 -1 200 140 1 0 0;
#X restore 883 348 graph;
#X obj 467 217 soundfiler;
#X floatatom 467 249 8 0 0 0 - - - 0;
#X obj 466 381 soundfiler;
#X floatatom 466 413 8 0 0 0 - - - 0;
#X floatatom 155 312 9 0 0 0 - - - 0;
#X floatatom 35 313 9 0 0 0 - - - 0;
#X floatatom 275 313 9 0 0 0 - - - 0;
#X obj 35 20 inlet;
#X text 82 19 loadbang;
#X obj 35 253 r ch3endsample1;
#X obj 35 285 v ch3dur1;
#X obj 155 252 r ch3endsample2;
#X obj 155 284 v ch3dur2;
#X obj 275 252 r ch3endsample3;
#X obj 275 284 v ch3dur3;
#X obj 469 125 s ch3endsample1;
#X obj 467 286 s ch3endsample2;
#X obj 466 446 s ch3endsample3;
#X floatatom 165 422 9 0 0 0 - - - 0;
#X floatatom 45 423 9 0 0 0 - - - 0;
#X floatatom 285 423 9 0 0 0 - - - 0;
#X obj 45 363 r ch3endsample4;
#X obj 45 395 v ch3dur4;
#X obj 165 362 r ch3endsample5;
#X obj 165 394 v ch3dur5;
#X obj 285 362 r ch3endsample6;
#X obj 285 394 v ch3dur6;
#N canvas 0 0 450 300 (subpatch) 0;
#X array ch3sample4 381952 float 2;
#X coords 0 1 381952 -1 200 140 1 0 0;
#X restore 1430 24 graph;
#X obj 1148 57 soundfiler;
#X floatatom 1148 89 8 0 0 0 - - - 0;
#N canvas 0 0 450 300 (subpatch) 0;
#X array ch3sample5 87040 float 2;
#X coords 0 1 87040 -1 200 140 1 0 0;
#X restore 1432 185 graph;
#N canvas 0 0 450 300 (subpatch) 0;
#X array ch3sample6 235520 float 2;
#X coords 0 1 235520 -1 200 140 1 0 0;
#X restore 1433 348 graph;
#X obj 1146 216 soundfiler;
#X floatatom 1146 248 8 0 0 0 - - - 0;
#X obj 1145 380 soundfiler;
#X floatatom 1145 412 8 0 0 0 - - - 0;
#X obj 1145 445 s ch3endsample3;
#X msg 1148 26 read -resize metalbowl1.wav ch3sample4;
#X obj 1148 124 s ch3endsample4;
#X msg 1146 185 read -resize metalbowl2.wav ch3sample5;
#X obj 1146 285 s ch3endsample5;
#X msg 1145 349 read -resize metalbowl3.wav ch3sample6;
#X msg 469 27 read -resize kids_aaoaah_single.wav ch3sample1;
#X msg 467 186 read -resize kids_maaameee_single.wav ch3sample2;
#X msg 464 349 read -resize kids_screamingtalking_single.wav ch3sample3
;
#X connect 1 0 2 0;
#X connect 2 0 20 0;
#X connect 5 0 6 0;
#X connect 6 0 21 0;
#X connect 7 0 8 0;
#X connect 8 0 22 0;
#X connect 12 0 47 0;
#X connect 12 0 48 0;
#X connect 12 0 49 0;
#X connect 12 0 15 0;
#X connect 12 0 17 0;
#X connect 12 0 19 0;
#X connect 12 0 27 0;
#X connect 12 0 29 0;
#X connect 12 0 31 0;
#X connect 12 0 42 0;
#X connect 12 0 44 0;
#X connect 12 0 46 0;
#X connect 14 0 15 0;
#X connect 15 0 10 0;
#X connect 16 0 17 0;
#X connect 17 0 9 0;
#X connect 18 0 19 0;
#X connect 19 0 11 0;
#X connect 26 0 27 0;
#X connect 27 0 24 0;
#X connect 28 0 29 0;
#X connect 29 0 23 0;
#X connect 30 0 31 0;
#X connect 31 0 25 0;
#X connect 33 0 34 0;
#X connect 34 0 43 0;
#X connect 37 0 38 0;
#X connect 38 0 45 0;
#X connect 39 0 40 0;
#X connect 40 0 41 0;
#X connect 42 0 33 0;
#X connect 44 0 37 0;
#X connect 46 0 39 0;
#X connect 47 0 1 0;
#X connect 48 0 5 0;
#X connect 49 0 7 0;
