#N canvas 21 366 1565 826 12;
#N canvas 0 0 450 300 (subpatch) 0;
#X array ch2sample1 32768 float 2;
#X coords 0 1 32768 -1 200 140 1 0 0;
#X restore 903 23 graph;
#X obj 540 58 soundfiler;
#X floatatom 540 90 8 0 0 0 - - - 0;
#N canvas 0 0 450 300 (subpatch) 0;
#X array ch2sample2 45056 float 2;
#X coords 0 1 45056 -1 200 140 1 0 0;
#X restore 905 184 graph;
#N canvas 0 0 450 300 (subpatch) 0;
#X array ch2sample3 71680 float 2;
#X coords 0 1 71680 -1 200 140 1 0 0;
#X restore 906 347 graph;
#X obj 538 217 soundfiler;
#X floatatom 538 249 8 0 0 0 - - - 0;
#X obj 537 381 soundfiler;
#X floatatom 537 413 8 0 0 0 - - - 0;
#X floatatom 157 252 9 0 0 0 - - - 0;
#X floatatom 34 253 9 0 0 0 - - - 0;
#X floatatom 276 254 9 0 0 0 - - - 0;
#X obj 540 125 s ch2endsample1;
#X obj 538 286 s ch2endsample2;
#X obj 537 446 s ch2endsample3;
#X obj 35 193 r ch2endsample1;
#X obj 155 192 r ch2endsample2;
#X obj 275 192 r ch2endsample3;
#X obj 35 225 v ch2dur1;
#X obj 155 224 v ch2dur2;
#X obj 275 224 v ch2dur3;
#X obj 35 20 inlet;
#X text 82 19 loadbang;
#X floatatom 167 362 9 0 0 0 - - - 0;
#X floatatom 44 363 9 0 0 0 - - - 0;
#X floatatom 286 364 9 0 0 0 - - - 0;
#X obj 45 303 r ch2endsample4;
#X obj 45 335 v ch2dur4;
#X obj 165 302 r ch2endsample5;
#X obj 165 334 v ch2dur5;
#X obj 285 302 r ch2endsample6;
#X obj 285 334 v ch2dur6;
#N canvas 0 0 450 300 (subpatch) 0;
#X array ch2sample4 32768 float 2;
#X coords 0 1 32768 -1 200 140 1 0 0;
#X restore 1413 23 graph;
#X obj 1161 56 soundfiler;
#X floatatom 1161 88 8 0 0 0 - - - 0;
#N canvas 0 0 450 300 (subpatch) 0;
#X array ch2sample5 45056 float 2;
#X coords 0 1 45056 -1 200 140 1 0 0;
#X restore 1415 184 graph;
#N canvas 0 0 450 300 (subpatch) 0;
#X array ch2sample6 71680 float 2;
#X coords 0 1 71680 -1 200 140 1 0 0;
#X restore 1416 347 graph;
#X obj 1159 215 soundfiler;
#X floatatom 1159 247 8 0 0 0 - - - 0;
#X obj 1158 379 soundfiler;
#X floatatom 1158 411 8 0 0 0 - - - 0;
#X msg 1161 25 read -resize chain2.wav ch2sample4;
#X obj 1161 123 s ch2endsample4;
#X msg 1159 184 read -resize chain3.wav ch2sample5;
#X obj 1159 284 s ch2endsample5;
#X msg 1158 348 read -resize chain4.wav ch2sample6;
#X obj 1158 444 s ch2endsample6;
#X msg 540 27 read -resize bell_simple_single.wav ch2sample1;
#X msg 539 188 read -resize bell_siren_single.wav ch2sample2;
#X msg 537 351 read -resize bell_longpippip_single.wav ch2sample3;
#X connect 1 0 2 0;
#X connect 2 0 12 0;
#X connect 5 0 6 0;
#X connect 6 0 13 0;
#X connect 7 0 8 0;
#X connect 8 0 14 0;
#X connect 15 0 18 0;
#X connect 16 0 19 0;
#X connect 17 0 20 0;
#X connect 18 0 10 0;
#X connect 19 0 9 0;
#X connect 20 0 11 0;
#X connect 21 0 47 0;
#X connect 21 0 48 0;
#X connect 21 0 49 0;
#X connect 21 0 18 0;
#X connect 21 0 19 0;
#X connect 21 0 20 0;
#X connect 21 0 27 0;
#X connect 21 0 29 0;
#X connect 21 0 31 0;
#X connect 21 0 41 0;
#X connect 21 0 43 0;
#X connect 21 0 45 0;
#X connect 26 0 27 0;
#X connect 27 0 24 0;
#X connect 28 0 29 0;
#X connect 29 0 23 0;
#X connect 30 0 31 0;
#X connect 31 0 25 0;
#X connect 33 0 34 0;
#X connect 34 0 42 0;
#X connect 37 0 38 0;
#X connect 38 0 44 0;
#X connect 39 0 40 0;
#X connect 40 0 46 0;
#X connect 41 0 33 0;
#X connect 43 0 37 0;
#X connect 45 0 39 0;
#X connect 47 0 1 0;
#X connect 48 0 5 0;
#X connect 49 0 7 0;
#X coords 0 0 1 1 85 60 0;
