#N canvas 747 343 1102 551 12;
#N canvas 0 0 450 300 (subpatch) 0;
#X array ch3sample1 32768 float 2;
#X coords 0 1 32768 -1 200 140 1 0 0;
#X restore 821 25 graph;
#X obj 539 58 soundfiler;
#X floatatom 539 90 8 0 0 0 - - - 0;
#N canvas 0 0 450 300 (subpatch) 0;
#X array ch3sample2 45056 float 2;
#X coords 0 1 45056 -1 200 140 1 0 0;
#X restore 823 186 graph;
#N canvas 0 0 450 300 (subpatch) 0;
#X array ch3sample3 71680 float 2;
#X coords 0 1 71680 -1 200 140 1 0 0;
#X restore 824 349 graph;
#X obj 537 217 soundfiler;
#X floatatom 537 249 8 0 0 0 - - - 0;
#X obj 536 381 soundfiler;
#X floatatom 536 413 8 0 0 0 - - - 0;
#X floatatom 157 312 9 0 0 0 - - - 0;
#X floatatom 34 313 9 0 0 0 - - - 0;
#X floatatom 276 314 9 0 0 0 - - - 0;
#X obj 541 125 s ch2endsample1;
#X obj 539 286 s ch2endsample2;
#X obj 535 446 s ch2endsample3;
#X obj 35 20 inlet;
#X text 82 19 loadbang;
#X obj 35 253 r ch3endsample1;
#X obj 35 285 v ch3dur1;
#X obj 155 252 r ch3endsample2;
#X obj 155 284 v ch3dur2;
#X obj 275 252 r ch3endsample3;
#X obj 275 284 v ch3dur3;
#X msg 539 27 read -resize metalbowl1.wav ch43sample1;
#X msg 537 186 read -resize metalbowl2.wav ch43sample2;
#X msg 536 350 read -resize metalbowl3.wav ch3sample3;
#X connect 1 0 2 0;
#X connect 2 0 12 0;
#X connect 5 0 6 0;
#X connect 6 0 13 0;
#X connect 7 0 8 0;
#X connect 8 0 14 0;
#X connect 15 0 23 0;
#X connect 15 0 24 0;
#X connect 15 0 25 0;
#X connect 15 0 18 0;
#X connect 15 0 20 0;
#X connect 15 0 22 0;
#X connect 17 0 18 0;
#X connect 18 0 10 0;
#X connect 19 0 20 0;
#X connect 20 0 9 0;
#X connect 21 0 22 0;
#X connect 22 0 11 0;
#X connect 23 0 1 0;
#X connect 24 0 5 0;
#X connect 25 0 7 0;
