#N canvas 604 29 1102 925 12;
#N canvas 0 0 450 300 (subpatch) 0;
#X array ch3sample1 381952 float 2;
#X coords 0 1 381952 -1 200 140 1 0 0;
#X restore 821 25 graph;
#X obj 539 58 soundfiler;
#X floatatom 539 90 8 0 0 0 - - - 0;
#N canvas 0 0 450 300 (subpatch) 0;
#X array ch3sample2 87040 float 2;
#X coords 0 1 87040 -1 200 140 1 0 0;
#X restore 823 186 graph;
#N canvas 0 0 450 300 (subpatch) 0;
#X array ch3sample3 235520 float 2;
#X coords 0 1 235520 -1 200 140 1 0 0;
#X restore 824 349 graph;
#X obj 537 217 soundfiler;
#X floatatom 537 249 8 0 0 0 - - - 0;
#X obj 536 381 soundfiler;
#X floatatom 536 413 8 0 0 0 - - - 0;
#X floatatom 157 312 9 0 0 0 - - - 0;
#X floatatom 34 313 9 0 0 0 - - - 0;
#X floatatom 276 314 9 0 0 0 - - - 0;
#X obj 35 20 inlet;
#X text 82 19 loadbang;
#X obj 35 253 r ch3endsample1;
#X obj 35 285 v ch3dur1;
#X obj 155 252 r ch3endsample2;
#X obj 155 284 v ch3dur2;
#X obj 275 252 r ch3endsample3;
#X obj 275 284 v ch3dur3;
#X obj 541 125 s ch3endsample1;
#X obj 539 286 s ch3endsample2;
#X obj 535 446 s ch3endsample3;
#X msg 539 27 read -resize metal1.wav ch3sample1;
#X msg 537 186 read -resize metal2.wav ch3sample2;
#X msg 536 350 read -resize metal3.wav ch3sample3;
#N canvas 0 0 450 300 (subpatch) 0;
#X array ch3sample4 87040 float 2;
#X coords 0 1 87040 -1 200 140 1 0 0;
#X restore 823 526 graph;
#N canvas 0 0 450 300 (subpatch) 0;
#X array ch3sample5 235520 float 2;
#X coords 0 1 235520 -1 200 140 1 0 0;
#X restore 824 689 graph;
#X obj 537 557 soundfiler;
#X floatatom 537 589 8 0 0 0 - - - 0;
#X obj 536 721 soundfiler;
#X floatatom 536 753 8 0 0 0 - - - 0;
#X obj 539 626 s ch3endsample4;
#X msg 536 690 read -resize metal5.wav ch3sample5;
#X obj 535 786 s ch3endsample5;
#X msg 537 526 read -resize metal4.wav ch3sample4;
#X floatatom 87 432 9 0 0 0 - - - 0;
#X floatatom 206 434 9 0 0 0 - - - 0;
#X obj 85 372 r ch3endsample4;
#X obj 85 404 v ch3dur4;
#X obj 205 372 r ch3endsample5;
#X obj 205 404 v ch3dur5;
#X obj 35 58 t b b;
#X obj 67 91 bng 15 250 50 0 empty empty empty 17 7 0 10 #fcfcfc #000000
#000000;
#X obj 35 92 bng 15 250 50 0 empty empty empty 17 7 0 10 #fcfcfc #000000
#000000;
#X text 87 56 1 load files \; 2 register variables;
#X connect 1 0 2 0;
#X connect 2 0 20 0;
#X connect 5 0 6 0;
#X connect 6 0 21 0;
#X connect 7 0 8 0;
#X connect 8 0 22 0;
#X connect 12 0 42 0;
#X connect 14 0 15 0;
#X connect 15 0 10 0;
#X connect 16 0 17 0;
#X connect 17 0 9 0;
#X connect 18 0 19 0;
#X connect 19 0 11 0;
#X connect 23 0 1 0;
#X connect 24 0 5 0;
#X connect 25 0 7 0;
#X connect 28 0 29 0;
#X connect 29 0 32 0;
#X connect 30 0 31 0;
#X connect 31 0 34 0;
#X connect 33 0 30 0;
#X connect 35 0 28 0;
#X connect 38 0 39 0;
#X connect 39 0 36 0;
#X connect 40 0 41 0;
#X connect 41 0 37 0;
#X connect 42 0 44 0;
#X connect 42 1 43 0;
#X connect 43 0 23 0;
#X connect 43 0 24 0;
#X connect 43 0 25 0;
#X connect 43 0 35 0;
#X connect 43 0 33 0;
#X connect 44 0 15 0;
#X connect 44 0 17 0;
#X connect 44 0 19 0;
#X connect 44 0 39 0;
#X connect 44 0 41 0;
