#N canvas 250 190 1565 826 12;
#N canvas 0 0 450 300 (subpatch) 0;
#X array ch2sample1 32768 float 2;
#X coords 0 1 32768 -1 200 140 1 0 0;
#X restore 1002 25 graph;
#X obj 750 58 soundfiler;
#X floatatom 750 90 8 0 0 0 - - - 0;
#N canvas 0 0 450 300 (subpatch) 0;
#X array ch2sample2 45056 float 2;
#X coords 0 1 45056 -1 200 140 1 0 0;
#X restore 1004 186 graph;
#N canvas 0 0 450 300 (subpatch) 0;
#X array ch2sample3 71680 float 2;
#X coords 0 1 71680 -1 200 140 1 0 0;
#X restore 1005 349 graph;
#X obj 748 217 soundfiler;
#X floatatom 748 249 8 0 0 0 - - - 0;
#X obj 747 381 soundfiler;
#X floatatom 747 413 8 0 0 0 - - - 0;
#X floatatom 418 142 9 0 0 0 - - - 0;
#X floatatom 295 143 9 0 0 0 - - - 0;
#X floatatom 537 144 9 0 0 0 - - - 0;
#X obj 752 125 s ch2endsample1;
#X obj 750 286 s ch2endsample2;
#X obj 746 446 s ch2endsample3;
#X obj 296 83 r ch2endsample1;
#X obj 416 82 r ch2endsample2;
#X obj 536 82 r ch2endsample3;
#X obj 296 115 v ch2dur1;
#X obj 416 114 v ch2dur2;
#X obj 536 114 v ch2dur3;
#X msg 750 27 read -resize chain2.wav ch2sample1;
#X msg 748 186 read -resize chain3.wav ch2sample2;
#X msg 747 350 read -resize chain4.wav ch2sample3;
#X obj 35 20 inlet;
#X text 82 19 loadbang;
#X connect 1 0 2 0;
#X connect 2 0 12 0;
#X connect 5 0 6 0;
#X connect 6 0 13 0;
#X connect 7 0 8 0;
#X connect 8 0 14 0;
#X connect 15 0 18 0;
#X connect 16 0 19 0;
#X connect 17 0 20 0;
#X connect 18 0 10 0;
#X connect 19 0 9 0;
#X connect 20 0 11 0;
#X connect 21 0 1 0;
#X connect 22 0 5 0;
#X connect 23 0 7 0;
#X connect 24 0 21 0;
#X connect 24 0 22 0;
#X connect 24 0 23 0;
#X connect 24 0 18 0;
#X connect 24 0 19 0;
#X connect 24 0 20 0;
#X coords 0 0 1 1 85 60 0;
