#N canvas 1 226 1750 668 12;
#N canvas 0 0 450 300 (subpatch) 0;
#X array sample1 16973 float 4;
#X coords 0 1 16972 -1 200 140 1 0 0;
#X restore 621 115 graph;
#X obj 365 148 soundfiler;
#X floatatom 365 180 8 0 0 0 - - - 0;
#N canvas 0 0 450 300 (subpatch) 0;
#X array sample2 16973 float 2;
#X coords 0 1 16973 -1 200 140 1 0 0;
#X restore 623 276 graph;
#N canvas 0 0 450 300 (subpatch) 0;
#X array sample3 16973 float 2;
#X coords 0 1 16973 -1 200 140 1 0 0;
#X restore 624 439 graph;
#X obj 363 307 soundfiler;
#X floatatom 363 339 8 0 0 0 - - - 0;
#X obj 360 471 soundfiler;
#X floatatom 360 503 8 0 0 0 - - - 0;
#X obj 365 215 s endsample1;
#X obj 363 376 s endsample2;
#X obj 360 536 s endsample3;
#X obj 25 173 r endsample1;
#X obj 125 172 r endsample2;
#X obj 223 172 r endsample3;
#X floatatom 125 232 9 0 0 0 - - - 0;
#X floatatom 25 233 9 0 0 0 - - - 0;
#X floatatom 223 233 9 0 0 0 - - - 0;
#X msg 365 117 read -resize bottle1.wav sample1;
#X msg 363 276 read -resize bottle2.wav sample2;
#X msg 360 440 read -resize bottle3.wav sample3;
#X obj 324 21 inlet;
#X text 371 22 loadbang;
#X floatatom 135 352 9 0 0 0 - - - 0;
#X floatatom 35 353 9 0 0 0 - - - 0;
#X floatatom 233 353 9 0 0 0 - - - 0;
#X obj 35 293 r endsample4;
#X obj 135 292 r endsample5;
#X obj 233 292 r endsample6;
#N canvas 0 0 450 300 (subpatch) 0;
#X array sample4 16973 float 4;
#X coords 0 1 16972 -1 200 140 1 0 0;
#X restore 1271 115 graph;
#X obj 995 148 soundfiler;
#X floatatom 995 180 8 0 0 0 - - - 0;
#N canvas 0 0 450 300 (subpatch) 0;
#X array sample5 16973 float 2;
#X coords 0 1 16973 -1 200 140 1 0 0;
#X restore 1273 276 graph;
#N canvas 0 0 450 300 (subpatch) 0;
#X array sample6 16973 float 2;
#X coords 0 1 16973 -1 200 140 1 0 0;
#X restore 1274 439 graph;
#X obj 993 307 soundfiler;
#X floatatom 993 339 8 0 0 0 - - - 0;
#X obj 992 471 soundfiler;
#X floatatom 992 503 8 0 0 0 - - - 0;
#X msg 995 117 read -resize bottle1.wav sample4;
#X obj 995 215 s endsample4;
#X msg 993 276 read -resize bottle2.wav sample5;
#X obj 993 376 s endsample5;
#X msg 992 440 read -resize bottle3.wav sample6;
#X obj 992 536 s endsample6;
#X obj 25 205 v ch1dur1;
#X obj 125 204 v ch1dur2;
#X obj 223 204 v ch1dur3;
#X obj 35 325 v ch1dur4;
#X obj 135 324 v ch1dur5;
#X obj 233 324 v ch1dur6;
#X connect 1 0 2 0;
#X connect 2 0 9 0;
#X connect 5 0 6 0;
#X connect 6 0 10 0;
#X connect 7 0 8 0;
#X connect 8 0 11 0;
#X connect 12 0 44 0;
#X connect 13 0 45 0;
#X connect 14 0 46 0;
#X connect 18 0 1 0;
#X connect 19 0 5 0;
#X connect 20 0 7 0;
#X connect 21 0 18 0;
#X connect 21 0 19 0;
#X connect 21 0 20 0;
#X connect 21 0 38 0;
#X connect 21 0 40 0;
#X connect 21 0 42 0;
#X connect 21 0 44 0;
#X connect 21 0 45 0;
#X connect 21 0 46 0;
#X connect 21 0 47 0;
#X connect 21 0 48 0;
#X connect 21 0 49 0;
#X connect 26 0 47 0;
#X connect 27 0 48 0;
#X connect 28 0 49 0;
#X connect 30 0 31 0;
#X connect 31 0 39 0;
#X connect 34 0 35 0;
#X connect 35 0 41 0;
#X connect 36 0 37 0;
#X connect 37 0 43 0;
#X connect 38 0 30 0;
#X connect 40 0 34 0;
#X connect 42 0 36 0;
#X connect 44 0 16 0;
#X connect 45 0 15 0;
#X connect 46 0 17 0;
#X connect 47 0 24 0;
#X connect 48 0 23 0;
#X connect 49 0 25 0;
#X coords 0 0 1 1 85 60 0;
