#N canvas 747 343 1102 551 12;
#N canvas 0 0 450 300 (subpatch) 0;
#X array ch4sample1 372736 float 2;
#X coords 0 1 372736 -1 200 140 1 0 0;
#X restore 821 25 graph;
#X obj 539 58 soundfiler;
#X floatatom 539 90 8 0 0 0 - - - 0;
#N canvas 0 0 450 300 (subpatch) 0;
#X array ch4sample2 95232 float 2;
#X coords 0 1 95232 -1 200 140 1 0 0;
#X restore 823 186 graph;
#N canvas 0 0 450 300 (subpatch) 0;
#X array ch4sample3 2665 float 2;
#X coords 0 1 2665 -1 200 140 1 0 0;
#X restore 824 349 graph;
#X obj 537 217 soundfiler;
#X floatatom 537 249 8 0 0 0 - - - 0;
#X obj 536 381 soundfiler;
#X floatatom 536 413 8 0 0 0 - - - 0;
#X floatatom 157 312 9 0 0 0 - - - 0;
#X floatatom 34 313 9 0 0 0 - - - 0;
#X floatatom 276 314 9 0 0 0 - - - 0;
#X obj 35 20 inlet;
#X text 82 19 loadbang;
#X obj 35 253 r ch4endsample1;
#X obj 35 285 v ch4dur1;
#X obj 155 252 r ch4endsample2;
#X obj 155 284 v ch4dur2;
#X obj 275 252 r ch4endsample3;
#X obj 275 284 v ch4dur3;
#X msg 539 27 read -resize sandpaper1.wav ch4sample1;
#X msg 537 186 read -resize sandpaper2.wav ch4sample2;
#X msg 536 350 read -resize sandpaper3.wav ch4sample3;
#X obj 541 125 s ch4endsample1;
#X obj 539 286 s ch4endsample2;
#X obj 535 446 s ch4endsample3;
#X connect 1 0 2 0;
#X connect 2 0 23 0;
#X connect 5 0 6 0;
#X connect 6 0 24 0;
#X connect 7 0 8 0;
#X connect 8 0 25 0;
#X connect 12 0 20 0;
#X connect 12 0 21 0;
#X connect 12 0 22 0;
#X connect 12 0 15 0;
#X connect 12 0 17 0;
#X connect 12 0 19 0;
#X connect 14 0 15 0;
#X connect 15 0 10 0;
#X connect 16 0 17 0;
#X connect 17 0 9 0;
#X connect 18 0 19 0;
#X connect 19 0 11 0;
#X connect 20 0 1 0;
#X connect 21 0 5 0;
#X connect 22 0 7 0;
