#N canvas 747 34 1102 860 12;
#N canvas 0 0 450 300 (subpatch) 0;
#X array ch4sample1 372736 float 2;
#X coords 0 1 372736 -1 200 140 1 0 0;
#X restore 821 25 graph;
#X obj 539 58 soundfiler;
#X floatatom 539 90 8 0 0 0 - - - 0;
#N canvas 0 0 450 300 (subpatch) 0;
#X array ch4sample2 95232 float 2;
#X coords 0 1 95232 -1 200 140 1 0 0;
#X restore 823 186 graph;
#N canvas 0 0 450 300 (subpatch) 0;
#X array ch4sample3 2665 float 2;
#X coords 0 1 2665 -1 200 140 1 0 0;
#X restore 824 349 graph;
#X obj 537 217 soundfiler;
#X floatatom 537 249 8 0 0 0 - - - 0;
#X obj 536 381 soundfiler;
#X floatatom 536 413 8 0 0 0 - - - 0;
#X floatatom 157 312 9 0 0 0 - - - 0;
#X floatatom 34 313 9 0 0 0 - - - 0;
#X floatatom 276 314 9 0 0 0 - - - 0;
#X obj 35 20 inlet;
#X text 82 19 loadbang;
#X obj 35 253 r ch4endsample1;
#X obj 35 285 v ch4dur1;
#X obj 155 252 r ch4endsample2;
#X obj 155 284 v ch4dur2;
#X obj 275 252 r ch4endsample3;
#X obj 275 284 v ch4dur3;
#X msg 539 27 read -resize sandpaper1.wav ch4sample1;
#X msg 537 186 read -resize sandpaper2.wav ch4sample2;
#X msg 536 350 read -resize sandpaper3.wav ch4sample3;
#X obj 541 125 s ch4endsample1;
#X obj 539 286 s ch4endsample2;
#X obj 535 446 s ch4endsample3;
#X floatatom 197 432 9 0 0 0 - - - 0;
#X floatatom 74 433 9 0 0 0 - - - 0;
#X floatatom 316 434 9 0 0 0 - - - 0;
#X obj 75 373 r ch4endsample4;
#X obj 75 405 v ch4dur4;
#X obj 195 372 r ch4endsample5;
#X obj 195 404 v ch4dur5;
#X obj 315 372 r ch4endsample6;
#X obj 315 404 v ch4dur6;
#N canvas 0 0 450 300 (subpatch) 0;
#X array ch4sample4 372736 float 2;
#X coords 0 1 372736 -1 200 140 1 0 0;
#X restore 824 515 graph;
#X obj 542 548 soundfiler;
#X floatatom 542 580 8 0 0 0 - - - 0;
#N canvas 0 0 450 300 (subpatch) 0;
#X array ch4sample5 95232 float 2;
#X coords 0 1 95232 -1 200 140 1 0 0;
#X restore 826 676 graph;
#N canvas 0 0 450 300 (subpatch) 0;
#X array ch4sample6 2665 float 2;
#X coords 0 1 2665 -1 200 140 1 0 0;
#X restore 827 839 graph;
#X obj 540 707 soundfiler;
#X floatatom 540 739 8 0 0 0 - - - 0;
#X obj 539 871 soundfiler;
#X floatatom 539 903 8 0 0 0 - - - 0;
#X obj 538 936 s ch4endsample3;
#X msg 542 517 read -resize sandpaper1.wav ch4sample4;
#X obj 544 615 s ch4endsample4;
#X msg 540 676 read -resize sandpaper2.wav ch4sample5;
#X obj 542 776 s ch4endsample5;
#X msg 539 840 read -resize sandpaper3.wav ch4sample6;
#X connect 1 0 2 0;
#X connect 2 0 23 0;
#X connect 5 0 6 0;
#X connect 6 0 24 0;
#X connect 7 0 8 0;
#X connect 8 0 25 0;
#X connect 12 0 20 0;
#X connect 12 0 21 0;
#X connect 12 0 22 0;
#X connect 12 0 15 0;
#X connect 12 0 17 0;
#X connect 12 0 19 0;
#X connect 12 0 30 0;
#X connect 12 0 32 0;
#X connect 12 0 34 0;
#X connect 12 0 45 0;
#X connect 12 0 47 0;
#X connect 12 0 49 0;
#X connect 14 0 15 0;
#X connect 15 0 10 0;
#X connect 16 0 17 0;
#X connect 17 0 9 0;
#X connect 18 0 19 0;
#X connect 19 0 11 0;
#X connect 20 0 1 0;
#X connect 21 0 5 0;
#X connect 22 0 7 0;
#X connect 29 0 30 0;
#X connect 30 0 27 0;
#X connect 31 0 32 0;
#X connect 32 0 26 0;
#X connect 33 0 34 0;
#X connect 34 0 28 0;
#X connect 36 0 37 0;
#X connect 37 0 46 0;
#X connect 40 0 41 0;
#X connect 41 0 48 0;
#X connect 42 0 43 0;
#X connect 43 0 44 0;
#X connect 45 0 36 0;
#X connect 47 0 40 0;
#X connect 49 0 42 0;
