#N canvas 102 120 1586 836 12;
#N canvas 0 0 450 300 (subpatch) 0;
#X array ch2sample1 372736 float 2;
#X coords 0 1 372736 -1 200 140 1 0 0;
#X restore 799 38 graph;
#X obj 517 71 soundfiler;
#X floatatom 517 103 8 0 0 0 - - - 0;
#N canvas 0 0 450 300 (subpatch) 0;
#X array ch2sample2 95232 float 2;
#X coords 0 1 95232 -1 200 140 1 0 0;
#X restore 801 199 graph;
#N canvas 0 0 450 300 (subpatch) 0;
#X array ch2sample3 2665 float 2;
#X coords 0 1 2665 -1 200 140 1 0 0;
#X restore 802 362 graph;
#X obj 515 230 soundfiler;
#X floatatom 515 262 8 0 0 0 - - - 0;
#X obj 514 394 soundfiler;
#X floatatom 514 426 8 0 0 0 - - - 0;
#X floatatom 157 360 9 0 0 0 - - - 0;
#X floatatom 34 361 9 0 0 0 - - - 0;
#X floatatom 276 362 9 0 0 0 - - - 0;
#X obj 35 20 inlet;
#X text 82 19 loadbang;
#X obj 35 301 r ch2endsample1;
#X obj 35 333 v ch2dur1;
#X obj 155 300 r ch2endsample2;
#X obj 155 332 v ch2dur2;
#X obj 275 300 r ch2endsample3;
#X obj 275 332 v ch2dur3;
#X msg 517 40 read -resize sandpaper1.wav ch2sample1;
#X obj 519 138 s ch2endsample1;
#X msg 515 199 read -resize sandpaper2.wav ch2sample2;
#X obj 517 299 s ch2endsample2;
#X msg 514 363 read -resize sandpaper3.wav ch2sample3;
#X obj 513 459 s ch2endsample3;
#X obj 35 58 t b b;
#X obj 67 91 bng 15 250 50 0 empty empty empty 17 7 0 10 #fcfcfc #000000
#000000;
#X obj 35 92 bng 15 250 50 0 empty empty empty 17 7 0 10 #fcfcfc #000000
#000000;
#X text 87 56 1 load files \; 2 register variables;
#X connect 1 0 2 0;
#X connect 2 0 21 0;
#X connect 5 0 6 0;
#X connect 6 0 23 0;
#X connect 7 0 8 0;
#X connect 8 0 25 0;
#X connect 12 0 26 0;
#X connect 14 0 15 0;
#X connect 15 0 10 0;
#X connect 16 0 17 0;
#X connect 17 0 9 0;
#X connect 18 0 19 0;
#X connect 19 0 11 0;
#X connect 20 0 1 0;
#X connect 22 0 5 0;
#X connect 24 0 7 0;
#X connect 26 0 28 0;
#X connect 26 1 27 0;
#X connect 27 0 20 0;
#X connect 27 0 22 0;
#X connect 27 0 24 0;
#X connect 28 0 15 0;
#X connect 28 0 17 0;
#X connect 28 0 19 0;
