#N canvas 651 343 1198 551 12;
#N canvas 0 0 450 300 (subpatch) 0;
#X array ch4altsample1 116176 float 2;
#X coords 0 1 116176 -1 200 140 1 0 0;
#X restore 910 25 graph;
#X obj 539 58 soundfiler;
#X floatatom 539 90 8 0 0 0 - - - 0;
#N canvas 0 0 450 300 (subpatch) 0;
#X array ch4altsample2 297675 float 2;
#X coords 0 1 297675 -1 200 140 1 0 0;
#X restore 912 186 graph;
#N canvas 0 0 450 300 (subpatch) 0;
#X array ch4altsample3 720000 float 2;
#X coords 0 1 720000 -1 200 140 1 0 0;
#X restore 913 349 graph;
#X obj 537 217 soundfiler;
#X floatatom 537 249 8 0 0 0 - - - 0;
#X obj 536 381 soundfiler;
#X floatatom 536 413 8 0 0 0 - - - 0;
#X floatatom 178 313 9 0 0 0 - - - 0;
#X floatatom 34 313 9 0 0 0 - - - 0;
#X floatatom 317 315 9 0 0 0 - - - 0;
#X obj 35 20 inlet;
#X text 82 19 loadbang;
#X obj 535 446 s ch4endsample3;
#X msg 537 186 read -resize plasticbag_medium.wav ch4altsample2;
#X msg 536 350 read -resize sploshing.aif ch4altsample3;
#X obj 35 253 r ch4altendsample1;
#X obj 176 253 r ch4altendsample2;
#X obj 316 253 r ch4altendsample3;
#X obj 35 285 v ch4altdur1;
#X obj 176 285 v ch4altdur2;
#X obj 316 285 v ch4altdur3;
#X msg 539 27 read -resize nut_drop_roll_medium.wav ch4altsample1;
#X obj 541 125 s ch4altendsample1;
#X obj 539 286 s ch4altendsample2;
#X connect 1 0 2 0;
#X connect 2 0 24 0;
#X connect 5 0 6 0;
#X connect 6 0 25 0;
#X connect 7 0 8 0;
#X connect 8 0 14 0;
#X connect 12 0 23 0;
#X connect 12 0 15 0;
#X connect 12 0 16 0;
#X connect 12 0 20 0;
#X connect 12 0 21 0;
#X connect 12 0 22 0;
#X connect 15 0 5 0;
#X connect 16 0 7 0;
#X connect 17 0 20 0;
#X connect 18 0 21 0;
#X connect 19 0 22 0;
#X connect 20 0 10 0;
#X connect 21 0 9 0;
#X connect 22 0 11 0;
#X connect 23 0 1 0;
