#N canvas 250 190 1565 826 12;
#N canvas 0 0 450 300 (subpatch) 0;
#X array ch5sample1 32768 float 2;
#X coords 0 1 32768 -1 200 140 1 0 0;
#X restore 302 155 graph;
#X obj 50 188 soundfiler;
#X floatatom 50 220 8 0 0 0 - - - 0;
#N canvas 0 0 450 300 (subpatch) 0;
#X array ch5sample2 45056 float 2;
#X coords 0 1 45056 -1 200 140 1 0 0;
#X restore 304 316 graph;
#N canvas 0 0 450 300 (subpatch) 0;
#X array ch5sample3 71680 float 2;
#X coords 0 1 71680 -1 200 140 1 0 0;
#X restore 305 479 graph;
#X obj 48 347 soundfiler;
#X floatatom 48 379 8 0 0 0 - - - 0;
#X obj 47 511 soundfiler;
#X floatatom 47 543 8 0 0 0 - - - 0;
#X floatatom 418 72 9 0 0 0 - - - 0;
#X floatatom 295 73 9 0 0 0 - - - 0;
#X floatatom 537 74 9 0 0 0 - - - 0;
#X obj 35 20 inlet;
#X text 82 19 loadbang;
#X msg 50 157 read -resize chain2.wav ch5sample1;
#X obj 50 255 s ch5endsample1;
#X msg 48 316 read -resize chain3.wav ch5sample2;
#X obj 48 416 s ch5endsample2;
#X msg 47 480 read -resize chain4.wav ch5sample3;
#X obj 47 576 s ch5endsample3;
#X obj 296 13 r ch5endsample1;
#X obj 296 45 v ch5dur1;
#X obj 416 12 r ch5endsample2;
#X obj 416 44 v ch5dur2;
#X obj 536 12 r ch5endsample3;
#X obj 536 44 v ch5dur3;
#X connect 1 0 2 0;
#X connect 2 0 15 0;
#X connect 5 0 6 0;
#X connect 6 0 17 0;
#X connect 7 0 8 0;
#X connect 8 0 19 0;
#X connect 12 0 14 0;
#X connect 12 0 16 0;
#X connect 12 0 18 0;
#X connect 12 0 21 0;
#X connect 12 0 23 0;
#X connect 12 0 25 0;
#X connect 14 0 1 0;
#X connect 16 0 5 0;
#X connect 18 0 7 0;
#X connect 20 0 21 0;
#X connect 21 0 10 0;
#X connect 22 0 23 0;
#X connect 23 0 9 0;
#X connect 24 0 25 0;
#X connect 25 0 11 0;
#X coords 0 0 1 1 85 60 0;
