#N canvas 1 226 1034 668 12;
#N canvas 0 0 450 300 (subpatch) 0;
#X array sample1 16973 float 4;
#X coords 0 1 16972 -1 200 140 1 0 0;
#X restore 731 115 graph;
#X obj 365 148 soundfiler;
#X floatatom 365 180 8 0 0 0 - - - 0;
#N canvas 0 0 450 300 (subpatch) 0;
#X array sample2 16973 float 2;
#X coords 0 1 16973 -1 200 140 1 0 0;
#X restore 733 276 graph;
#N canvas 0 0 450 300 (subpatch) 0;
#X array sample3 16973 float 2;
#X coords 0 1 16973 -1 200 140 1 0 0;
#X restore 734 439 graph;
#X obj 363 307 soundfiler;
#X floatatom 363 339 8 0 0 0 - - - 0;
#X obj 345 471 soundfiler;
#X floatatom 345 503 8 0 0 0 - - - 0;
#X obj 367 215 s endsample1;
#X obj 365 376 s endsample2;
#X obj 344 536 s endsample3;
#X obj 25 173 r endsample1;
#X obj 25 205 v dur1;
#X obj 125 172 r endsample2;
#X obj 125 204 v dur2;
#X obj 223 172 r endsample3;
#X obj 223 204 v dur3;
#X floatatom 127 232 9 0 0 0 - - - 0;
#X floatatom 24 233 9 0 0 0 - - - 0;
#X floatatom 224 234 9 0 0 0 - - - 0;
#X msg 365 117 read -resize bottle1.wav sample1;
#X msg 363 276 read -resize bottle2.wav sample2;
#X msg 345 440 read -resize bottle3.wav sample3;
#X obj 324 21 inlet;
#X text 371 22 loadbang;
#X connect 1 0 2 0;
#X connect 2 0 9 0;
#X connect 5 0 6 0;
#X connect 6 0 10 0;
#X connect 7 0 8 0;
#X connect 8 0 11 0;
#X connect 12 0 13 0;
#X connect 13 0 19 0;
#X connect 14 0 15 0;
#X connect 15 0 18 0;
#X connect 16 0 17 0;
#X connect 17 0 20 0;
#X connect 21 0 1 0;
#X connect 22 0 5 0;
#X connect 23 0 7 0;
#X connect 24 0 13 0;
#X connect 24 0 15 0;
#X connect 24 0 17 0;
#X connect 24 0 21 0;
#X connect 24 0 22 0;
#X connect 24 0 23 0;
#X coords 0 0 1 1 85 60 0;
