#N canvas 188 416 1586 836 12;
#N canvas 0 0 450 300 (subpatch) 0;
#X array ch2sample1 372736 float 2;
#X coords 0 1 372736 -1 200 140 1 0 0;
#X restore 317 190 graph;
#X obj 35 223 soundfiler;
#X floatatom 35 255 8 0 0 0 - - - 0;
#N canvas 0 0 450 300 (subpatch) 0;
#X array ch2sample2 95232 float 2;
#X coords 0 1 95232 -1 200 140 1 0 0;
#X restore 319 351 graph;
#N canvas 0 0 450 300 (subpatch) 0;
#X array ch2sample3 2665 float 2;
#X coords 0 1 2665 -1 200 140 1 0 0;
#X restore 320 514 graph;
#X obj 33 382 soundfiler;
#X floatatom 33 414 8 0 0 0 - - - 0;
#X obj 32 546 soundfiler;
#X floatatom 32 578 8 0 0 0 - - - 0;
#X floatatom 284 118 9 0 0 0 - - - 0;
#X floatatom 161 119 9 0 0 0 - - - 0;
#X floatatom 403 120 9 0 0 0 - - - 0;
#X obj 35 20 inlet;
#X text 82 19 loadbang;
#N canvas 0 0 450 300 (subpatch) 0;
#X array ch2sample4 720000 float 2;
#X coords 0 1 720000 -1 200 140 1 0 0;
#X restore 917 190 graph;
#X obj 565 223 soundfiler;
#X floatatom 565 255 8 0 0 0 - - - 0;
#N canvas 0 0 450 300 (subpatch) 0;
#X array ch2sample5 297675 float 2;
#X coords 0 1 297675 -1 200 140 1 0 0;
#X restore 919 351 graph;
#N canvas 0 0 450 300 (subpatch) 0;
#X array ch2sample6 116176 float 2;
#X coords 0 1 116176 -1 200 140 1 0 0;
#X restore 920 514 graph;
#X obj 563 382 soundfiler;
#X floatatom 563 414 8 0 0 0 - - - 0;
#X obj 562 546 soundfiler;
#X floatatom 562 578 8 0 0 0 - - - 0;
#X floatatom 878 118 9 0 0 0 - - - 0;
#X floatatom 755 119 9 0 0 0 - - - 0;
#X floatatom 997 120 9 0 0 0 - - - 0;
#X obj 162 59 r ch2endsample1;
#X obj 162 91 v ch2dur1;
#X obj 282 58 r ch2endsample2;
#X obj 282 90 v ch2dur2;
#X obj 402 58 r ch2endsample3;
#X obj 402 90 v ch2dur3;
#X obj 756 59 r ch2endsample4;
#X obj 756 91 v ch2dur4;
#X obj 876 58 r ch2endsample5;
#X obj 876 90 v ch2dur5;
#X obj 996 58 r ch2endsample6;
#X obj 996 90 v ch2dur6;
#X msg 35 192 read -resize sandpaper1.wav ch2sample1;
#X obj 37 290 s ch2endsample1;
#X msg 33 351 read -resize sandpaper2.wav ch2sample2;
#X obj 35 451 s ch2endsample2;
#X msg 32 515 read -resize sandpaper3.wav ch2sample3;
#X obj 31 611 s ch2endsample3;
#X msg 565 192 read -resize sploshing.aif ch2sample4;
#X obj 567 290 s ch2endsample4;
#X msg 563 351 read -resize plasticbag_medium.wav ch2sample5;
#X obj 565 451 s ch2endsample5;
#X msg 562 515 read -resize nut_drop_roll_medium.wav ch2sample6;
#X obj 561 611 s ch2endsample6;
#X connect 1 0 2 0;
#X connect 2 0 39 0;
#X connect 5 0 6 0;
#X connect 6 0 41 0;
#X connect 7 0 8 0;
#X connect 8 0 43 0;
#X connect 12 0 38 0;
#X connect 12 0 40 0;
#X connect 12 0 42 0;
#X connect 12 0 44 0;
#X connect 12 0 46 0;
#X connect 12 0 48 0;
#X connect 12 0 27 0;
#X connect 12 0 29 0;
#X connect 12 0 31 0;
#X connect 12 0 33 0;
#X connect 12 0 35 0;
#X connect 12 0 37 0;
#X connect 15 0 16 0;
#X connect 16 0 45 0;
#X connect 19 0 20 0;
#X connect 20 0 47 0;
#X connect 21 0 22 0;
#X connect 22 0 49 0;
#X connect 26 0 27 0;
#X connect 27 0 10 0;
#X connect 28 0 29 0;
#X connect 29 0 9 0;
#X connect 30 0 31 0;
#X connect 31 0 11 0;
#X connect 32 0 33 0;
#X connect 33 0 24 0;
#X connect 34 0 35 0;
#X connect 35 0 23 0;
#X connect 36 0 37 0;
#X connect 37 0 25 0;
#X connect 38 0 1 0;
#X connect 40 0 5 0;
#X connect 42 0 7 0;
#X connect 44 0 15 0;
#X connect 46 0 19 0;
#X connect 48 0 21 0;
