#N canvas 1 226 1034 668 12;
#N canvas 0 0 450 300 (subpatch) 0;
#X array sample1 16973 float 4;
#X coords 0 1 16972 -1 200 140 1 0 0;
#X restore 741 45 graph;
#X obj 465 78 soundfiler;
#X floatatom 465 110 8 0 0 0 - - - 0;
#N canvas 0 0 450 300 (subpatch) 0;
#X array sample2 16973 float 2;
#X coords 0 1 16973 -1 200 140 1 0 0;
#X restore 743 206 graph;
#N canvas 0 0 450 300 (subpatch) 0;
#X array sample3 16973 float 2;
#X coords 0 1 16973 -1 200 140 1 0 0;
#X restore 744 369 graph;
#X obj 463 237 soundfiler;
#X floatatom 463 269 8 0 0 0 - - - 0;
#X obj 465 401 soundfiler;
#X floatatom 465 433 8 0 0 0 - - - 0;
#X obj 467 145 s endsample1;
#X obj 465 306 s endsample2;
#X obj 464 466 s endsample3;
#X obj 37 323 r endsample1;
#X obj 37 355 v dur1;
#X obj 137 322 r endsample2;
#X obj 137 354 v dur2;
#X obj 235 322 r endsample3;
#X obj 235 354 v dur3;
#X floatatom 139 382 9 0 0 0 - - - 0;
#X floatatom 36 383 9 0 0 0 - - - 0;
#X floatatom 236 384 9 0 0 0 - - - 0;
#X msg 465 47 read -resize bottle1.wav sample1;
#X msg 463 206 read -resize bottle2.wav sample2;
#X msg 465 370 read -resize bottle3.wav sample3;
#X obj 37 19 inlet;
#X text 84 20 loadbang;
#X obj 37 58 t b b;
#X obj 69 91 bng 15 250 50 0 empty empty empty 17 7 0 10 #fcfcfc #000000
#000000;
#X obj 37 92 bng 15 250 50 0 empty empty empty 17 7 0 10 #fcfcfc #000000
#000000;
#X text 89 56 1 load files \; 2 register variables;
#X connect 1 0 2 0;
#X connect 2 0 9 0;
#X connect 5 0 6 0;
#X connect 6 0 10 0;
#X connect 7 0 8 0;
#X connect 8 0 11 0;
#X connect 12 0 13 0;
#X connect 13 0 19 0;
#X connect 14 0 15 0;
#X connect 15 0 18 0;
#X connect 16 0 17 0;
#X connect 17 0 20 0;
#X connect 21 0 1 0;
#X connect 22 0 5 0;
#X connect 23 0 7 0;
#X connect 24 0 26 0;
#X connect 26 0 28 0;
#X connect 26 1 27 0;
#X connect 27 0 21 0;
#X connect 27 0 22 0;
#X connect 27 0 23 0;
#X connect 28 0 13 0;
#X connect 28 0 15 0;
#X connect 28 0 17 0;
#X coords 0 0 1 1 85 60 0;
