#N canvas 696 301 450 300 12;
#X obj 25 166 dac~ 1 2;
#X obj 108 130 *~;
#X floatatom 140 99 5 0 0 0 - - - 0;
#X obj 140 28 loadbang;
#X obj 24 98 adc~ 1 2 3 4;
#X msg 140 68 10;
#X connect 1 0 0 1;
#X connect 2 0 1 1;
#X connect 3 0 5 0;
#X connect 4 0 0 0;
#X connect 4 1 1 0;
#X connect 4 2 0 0;
#X connect 4 3 1 0;
#X connect 5 0 2 0;
