#N canvas 227 67 582 300 12;
#X obj 29 19 notein;
#X floatatom 29 61 5 0 0 0 - - - 0;
#X obj 36 139 print 47;
#X obj 214 139 print other note;
#X obj 29 96 route 47 39;
#X text 114 93 if button 4 or 12 on Beatstep - 4 is initial state \,
12 is alternate (so can reset);
#X obj 143 139 print 39;
#X obj 72 242 outlet;
#X msg 29 197 1;
#X msg 122 198 4;
#X obj 29 172 bng 15 250 50 0 empty empty empty 17 7 0 10 #fcfcfc #000000
#000000;
#X obj 122 169 bng 15 250 50 0 empty empty empty 17 7 0 10 #fcfcfc
#000000 #000000;
#X connect 0 0 1 0;
#X connect 1 0 4 0;
#X connect 4 0 2 0;
#X connect 4 0 10 0;
#X connect 4 1 6 0;
#X connect 4 1 11 0;
#X connect 4 2 3 0;
#X connect 8 0 7 0;
#X connect 9 0 7 0;
#X connect 10 0 8 0;
#X connect 11 0 9 0;
