#N canvas 160 160 450 300 12;
#X obj 194 225 bng 15 250 50 0 empty empty empty 17 7 0 10 #fcfcfc
#000000 #000000;
#X obj 195 318 pack f f f;
#X msg 196 455 \$1 \, \$2 \$3;
#X text 271 455 start \, end duration;
#X floatatom 194 283 5 0 0 0 - - - 0;
#X floatatom 316 225 9 0 0 3 duration\ in\ ms - selected_duration 0
;
#X obj 212 379 print;
#X msg 212 350 \$1 \$2 \$3;
#X obj 190 75 bonk~;
#X text 207 402 check values see console, f 12;
#X obj 196 576 line~;
#X obj 323 516 makefilename sample%d;
#X obj 323 548 symbol file;
#X msg 246 575 set \$1;
#X obj 252 485 expr selectedsample;
#X floatatom 269 516 5 0 0 0 - - - 0;
#X obj 347 584 print;
#X floatatom 228 224 8 0 0 3 end - - 0;
#X obj 550 96 selectasample;
#X obj 228 191 selectasample;
#X floatatom 550 135 7 0 0 3 end - - 0;
#X floatatom 638 134 8 0 0 3 duration\ in\ ms - - 0;
#X obj 190 161 spigot;
#X obj 229 132 tgl 15 0 empty empty delay\\\ bonk 17 7 0 10 #fcfcfc
#000000 #000000 0 1;
#X msg 250 106 1;
#X msg 315 113 0;
#X obj 252 75 delay 1000 1 msec;
#X obj 381 41 r selected_duration;
#X floatatom 12 227 5 0 0 3 transpose - transpose 0;
#N canvas 791 399 716 500 transposefromvelocity 0;
#X obj 18 17 inlet~;
#X floatatom 19 120 5 0 0 0 - - - 0;
#X obj 18 377 spigot;
#X obj 74 348 tgl 15 0 empty empty empty 17 7 0 10 #fcfcfc #000000
#000000 0 1;
#X msg 135 320 0;
#X obj 19 54 env~ 200 500;
#N canvas 548 216 970 499 scaler 0;
#X obj 30 26 inlet;
#X obj 30 98 -;
#X obj 30 224 /;
#X obj 30 285 *;
#X obj 30 345 +;
#X obj 30 365 outlet;
#X obj 70 26 inlet;
#X obj 70 83 t a a;
#X obj 115 26 inlet;
#X obj 97 169 pack f f;
#X msg 97 189 \$1 \$2;
#X obj 97 209 -;
#X obj 115 136 t b a;
#X obj 160 26 inlet;
#X obj 160 188 t a a;
#X obj 205 26 inlet;
#X obj 187 230 pack f f;
#X msg 187 250 \$1 \$2;
#X obj 187 270 -;
#X obj 205 197 t b a;
#X obj 275 26 loadbang;
#X obj 275 46 t b b b b;
#X obj 77 61 f \$1;
#X obj 212 175 f \$4;
#X obj 167 166 f \$3;
#X obj 122 114 f \$2;
#X text 26 414 abstraction by erash from this thread: https://forum.pdpatchrepo.info/topic/6813/creating-scale-or-range/3
, f 71;
#X text 395 46 1 number input;
#X text 395 67 2 old low value;
#X text 395 89 3 old high value;
#X text 396 112 4 new low value;
#X text 397 133 5 new high value;
#X text 394 26 inlets from left to right:;
#X connect 0 0 1 0;
#X connect 1 0 2 0;
#X connect 2 0 3 0;
#X connect 3 0 4 0;
#X connect 4 0 5 0;
#X connect 6 0 7 0;
#X connect 7 0 1 1;
#X connect 7 1 9 0;
#X connect 8 0 12 0;
#X connect 9 0 10 0;
#X connect 10 0 11 0;
#X connect 11 0 2 1;
#X connect 12 0 9 0;
#X connect 12 1 9 1;
#X connect 13 0 14 0;
#X connect 14 0 16 0;
#X connect 14 1 4 1;
#X connect 15 0 19 0;
#X connect 16 0 17 0;
#X connect 17 0 18 0;
#X connect 18 0 3 1;
#X connect 19 0 16 0;
#X connect 19 1 16 1;
#X connect 20 0 21 0;
#X connect 21 0 22 0;
#X connect 21 1 25 0;
#X connect 21 2 24 0;
#X connect 21 3 23 0;
#X connect 22 0 7 0;
#X connect 23 0 19 0;
#X connect 24 0 14 0;
#X connect 25 0 12 0;
#X restore 18 241 pd scaler;
#X floatatom 74 101 5 0 0 0 - - - 0;
#X msg 74 173 80;
#X msg 121 170 0;
#X floatatom 18 298 5 0 0 0 - - - 0;
#X obj 7 154 moses 64;
#X msg 157 202 4;
#X obj 157 86 loadbang;
#X obj 100 262 inlet;
#X obj 135 290 inlet;
#X obj 18 424 outlet;
#X text 250 24 inlet 1: mic signal;
#X text 249 262 inlet 2: float value (1) from delay;
#X text 250 292 inlet 3: spigot triggers 0 message to prevent changing
transposition while sound is playing;
#X text 258 422 outlet sends transpose value to transpose float box
(sends to pitchshift abstraction);
#X connect 0 0 5 0;
#X connect 1 0 11 0;
#X connect 2 0 16 0;
#X connect 3 0 2 1;
#X connect 4 0 3 0;
#X connect 5 0 1 0;
#X connect 6 0 10 0;
#X connect 7 0 8 0;
#X connect 8 0 6 2;
#X connect 9 0 6 3;
#X connect 10 0 2 0;
#X connect 11 1 6 0;
#X connect 12 0 6 4;
#X connect 13 0 8 0;
#X connect 13 0 9 0;
#X connect 13 0 12 0;
#X connect 14 0 3 0;
#X connect 15 0 4 0;
#X restore 12 191 pd transposefromvelocity;
#X text 388 225 s selected_duration;
#X obj 550 11 inlet;
#X text 594 11 loadbang;
#X obj 189 9 inlet~;
#X text 116 9 from adc~;
#X obj 259 9 inlet;
#X text 303 9 detection level;
#X obj 197 624 outlet~;
#X text 258 624 to tabread4~;
#X connect 0 0 4 0;
#X connect 1 0 2 0;
#X connect 1 0 7 0;
#X connect 2 0 14 0;
#X connect 2 0 10 0;
#X connect 4 0 1 0;
#X connect 7 0 6 0;
#X connect 8 0 22 0;
#X connect 10 0 37 0;
#X connect 11 0 12 0;
#X connect 12 0 13 0;
#X connect 12 0 16 0;
#X connect 13 0 37 0;
#X connect 14 0 11 0;
#X connect 14 0 15 0;
#X connect 18 0 20 0;
#X connect 18 1 21 0;
#X connect 19 0 1 1;
#X connect 19 0 17 0;
#X connect 19 0 0 0;
#X connect 19 1 1 2;
#X connect 19 1 5 0;
#X connect 20 0 1 1;
#X connect 21 0 1 2;
#X connect 22 0 19 0;
#X connect 22 0 29 2;
#X connect 23 0 22 1;
#X connect 24 0 23 0;
#X connect 24 0 29 1;
#X connect 25 0 23 0;
#X connect 26 0 24 0;
#X connect 27 0 26 0;
#X connect 27 0 25 0;
#X connect 29 0 28 0;
#X connect 31 0 18 0;
#X connect 31 0 24 0;
#X connect 33 0 8 0;
#X connect 33 0 29 0;
#X connect 35 0 8 0;
