#N canvas 952 332 958 624 12;
#X obj 102 467 expr abs($f1 / 44.1);
#X floatatom 29 217 5 1 3 0 - - - 0;
#X obj 30 193 + 1;
#X obj 29 300 bng 15 250 50 0 empty empty empty 17 7 0 10 #fcfcfc #000000
#000000;
#X obj 122 301 bng 15 250 50 0 empty empty empty 17 7 0 10 #fcfcfc
#000000 #000000;
#X obj 216 302 bng 15 250 50 0 empty empty empty 17 7 0 10 #fcfcfc
#000000 #000000;
#X floatatom 102 374 9 0 0 0 - - - 0;
#X text 325 251 number of the randomly selected sample, f 23;
#X obj 30 16 inlet;
#X text 110 400 number of samples in the selected sample, f 22;
#X obj 102 521 outlet;
#X text 156 522 duration in ms;
#X obj 50 409 outlet;
#X obj 30 61 bng 15 250 50 0 empty empty empty 17 7 0 10 #fcfcfc #000000
#000000;
#X obj 96 218 print randomselection;
#X obj 30 165 vanillaUrn 3;
#X obj 132 36 print selectasample_ch4;
#X obj 179 255 v ch4selectedsample;
#X obj 29 334 expr ch4dur1;
#X obj 122 333 expr ch4dur2;
#X obj 216 333 expr ch4dur3;
#X obj 20 444 print fulldurationch4;
#X obj 126 496 print calculateddurationch4;
#X obj 364 40 notein;
#X floatatom 364 82 5 0 0 0 - - - 0;
#X obj 364 159 print 47;
#X obj 460 158 print other note;
#X obj 364 117 route 47 39;
#X text 449 114 if button 4 or 12 on Beatstep - 4 is initial state
\, 12 is alternate (so can reset);
#X msg 226 159 1;
#X msg 161 159 4;
#X obj 410 188 print 39;
#X obj 359 300 bng 15 250 50 0 empty empty empty 17 7 0 10 #fcfcfc
#000000 #000000;
#X obj 452 301 bng 15 250 50 0 empty empty empty 17 7 0 10 #fcfcfc
#000000 #000000;
#X obj 546 302 bng 15 250 50 0 empty empty empty 17 7 0 10 #fcfcfc
#000000 #000000;
#X obj 359 334 expr ch4dur4;
#X obj 452 333 expr ch4dur5;
#X obj 546 333 expr ch4dur6;
#X obj 29 257 select 1 2 3 4 5 6;
#X connect 0 0 10 0;
#X connect 0 0 22 0;
#X connect 1 0 17 0;
#X connect 1 0 38 0;
#X connect 2 0 1 0;
#X connect 2 0 14 0;
#X connect 3 0 18 0;
#X connect 4 0 19 0;
#X connect 5 0 20 0;
#X connect 6 0 0 0;
#X connect 6 0 12 0;
#X connect 6 0 21 0;
#X connect 8 0 13 0;
#X connect 8 0 16 0;
#X connect 13 0 15 0;
#X connect 15 0 2 0;
#X connect 18 0 6 0;
#X connect 19 0 6 0;
#X connect 20 0 6 0;
#X connect 23 0 24 0;
#X connect 24 0 27 0;
#X connect 27 0 25 0;
#X connect 27 0 29 0;
#X connect 27 1 30 0;
#X connect 27 1 31 0;
#X connect 27 2 26 0;
#X connect 29 0 2 1;
#X connect 30 0 2 1;
#X connect 32 0 35 0;
#X connect 33 0 36 0;
#X connect 34 0 37 0;
#X connect 35 0 6 0;
#X connect 36 0 6 0;
#X connect 37 0 6 0;
#X connect 38 0 3 0;
#X connect 38 1 4 0;
#X connect 38 2 5 0;
#X connect 38 3 32 0;
#X connect 38 4 33 0;
#X connect 38 5 34 0;
