#N canvas 674 124 958 624 12;
#X obj 102 467 expr abs($f1 / 44.1);
#X floatatom 29 217 5 1 3 0 - - - 0;
#X obj 30 193 + 1;
#X obj 29 300 bng 15 250 50 0 empty empty empty 17 7 0 10 #fcfcfc #000000
#000000;
#X obj 122 301 bng 15 250 50 0 empty empty empty 17 7 0 10 #fcfcfc
#000000 #000000;
#X obj 216 302 bng 15 250 50 0 empty empty empty 17 7 0 10 #fcfcfc
#000000 #000000;
#X floatatom 102 374 9 0 0 0 - - - 0;
#X text 325 251 number of the randomly selected sample, f 23;
#X obj 30 16 inlet;
#X text 110 400 number of samples in the selected sample, f 22;
#X obj 102 521 outlet;
#X text 156 522 duration in ms;
#X obj 50 409 outlet;
#X obj 30 61 bng 15 250 50 0 empty empty empty 17 7 0 10 #fcfcfc #000000
#000000;
#X obj 96 218 print randomselection;
#X obj 30 165 vanillaUrn 3;
#X obj 359 300 bng 15 250 50 0 empty empty empty 17 7 0 10 #fcfcfc
#000000 #000000;
#X obj 452 301 bng 15 250 50 0 empty empty empty 17 7 0 10 #fcfcfc
#000000 #000000;
#X obj 546 302 bng 15 250 50 0 empty empty empty 17 7 0 10 #fcfcfc
#000000 #000000;
#X obj 29 257 select 1 2 3 4 5 6;
#X obj 304 20 inlet;
#X text 352 19 select soundbank via Trill Bar;
#X obj 304 162 trill_switchbank;
#X obj 75 111 print selectasample_ch5;
#X obj 179 255 v ch5selectedsample;
#X obj 29 334 expr ch5dur1;
#X obj 122 333 expr ch5dur2;
#X obj 216 333 expr ch5dur3;
#X obj 359 334 expr ch5dur4;
#X obj 452 333 expr ch5dur5;
#X obj 546 333 expr ch5dur6;
#X obj 20 444 print fulldurationch5;
#X obj 126 496 print calculateddurationch5;
#X connect 0 0 10 0;
#X connect 0 0 32 0;
#X connect 1 0 19 0;
#X connect 1 0 24 0;
#X connect 2 0 1 0;
#X connect 2 0 14 0;
#X connect 3 0 25 0;
#X connect 4 0 26 0;
#X connect 5 0 27 0;
#X connect 6 0 0 0;
#X connect 6 0 12 0;
#X connect 6 0 31 0;
#X connect 8 0 13 0;
#X connect 8 0 23 0;
#X connect 13 0 15 0;
#X connect 15 0 2 0;
#X connect 16 0 28 0;
#X connect 17 0 29 0;
#X connect 18 0 30 0;
#X connect 19 0 3 0;
#X connect 19 1 4 0;
#X connect 19 2 5 0;
#X connect 19 3 16 0;
#X connect 19 4 17 0;
#X connect 19 5 18 0;
#X connect 20 0 22 0;
#X connect 22 0 2 1;
#X connect 25 0 6 0;
#X connect 26 0 6 0;
#X connect 27 0 6 0;
#X connect 28 0 6 0;
#X connect 29 0 6 0;
#X connect 30 0 6 0;
