#N canvas 952 332 958 624 12;
#X obj 102 387 expr abs($f1 / 44.1);
#X obj 30 90 random 3;
#X floatatom 29 137 5 1 3 0 - - - 0;
#X obj 30 113 + 1;
#X obj 29 177 select 1 2 3;
#X obj 29 220 bng 15 250 50 0 empty empty empty 17 7 0 10 #fcfcfc #000000
#000000;
#X obj 102 221 bng 15 250 50 0 empty empty empty 17 7 0 10 #fcfcfc
#000000 #000000;
#X obj 179 222 bng 15 250 50 0 empty empty empty 17 7 0 10 #fcfcfc
#000000 #000000;
#X obj 29 254 expr dur1;
#X obj 102 253 expr dur2;
#X obj 179 253 expr dur3;
#X floatatom 102 294 9 0 0 0 - - - 0;
#X obj 149 175 v selectedsample;
#X text 276 171 number of the randomly selected sample, f 23;
#X obj 30 16 inlet;
#X text 110 320 number of samples in the selected sample, f 22;
#X obj 102 441 outlet;
#X text 156 442 duration in ms;
#X obj 50 329 outlet;
#X obj 132 36 print selectasample;
#X obj 30 61 bng 15 250 50 0 empty empty empty 17 7 0 10 #fcfcfc #000000
#000000;
#X obj 96 138 print randomselection;
#X obj 20 364 print fullduration;
#X obj 126 416 print calculatedduration;
#X connect 0 0 16 0;
#X connect 0 0 23 0;
#X connect 1 0 3 0;
#X connect 2 0 12 0;
#X connect 2 0 4 0;
#X connect 3 0 2 0;
#X connect 3 0 21 0;
#X connect 4 0 5 0;
#X connect 4 1 6 0;
#X connect 4 2 7 0;
#X connect 5 0 8 0;
#X connect 6 0 9 0;
#X connect 7 0 10 0;
#X connect 8 0 11 0;
#X connect 9 0 11 0;
#X connect 10 0 11 0;
#X connect 11 0 0 0;
#X connect 11 0 18 0;
#X connect 11 0 22 0;
#X connect 14 0 19 0;
#X connect 14 0 20 0;
#X connect 20 0 1 0;
