#N canvas 952 0 958 956 12;
#X obj 102 387 expr abs($f1 / 44.1);
#X floatatom 29 137 5 1 3 0 - - - 0;
#X obj 30 113 + 1;
#X obj 29 177 select 1 2 3;
#X obj 29 220 bng 15 250 50 0 empty empty empty 17 7 0 10 #fcfcfc #000000
#000000;
#X obj 122 221 bng 15 250 50 0 empty empty empty 17 7 0 10 #fcfcfc
#000000 #000000;
#X obj 216 222 bng 15 250 50 0 empty empty empty 17 7 0 10 #fcfcfc
#000000 #000000;
#X floatatom 102 294 9 0 0 0 - - - 0;
#X text 295 171 number of the randomly selected sample, f 23;
#X obj 30 16 inlet;
#X text 110 320 number of samples in the selected sample, f 22;
#X obj 102 441 outlet;
#X text 156 442 duration in ms;
#X obj 50 329 outlet;
#X obj 30 61 bng 15 250 50 0 empty empty empty 17 7 0 10 #fcfcfc #000000
#000000;
#X obj 99 129 print randomselection;
#X obj 30 85 vanillaUrn 3;
#X obj 132 36 print selectasample_ch2;
#X obj 149 175 v ch2selectedsample;
#X obj 29 254 expr ch2dur1;
#X obj 122 253 expr ch2dur2;
#X obj 216 253 expr ch2dur3;
#X obj 20 364 print fulldurationch2;
#X obj 126 416 print calculateddurationch2;
#X connect 0 0 11 0;
#X connect 0 0 23 0;
#X connect 1 0 3 0;
#X connect 1 0 18 0;
#X connect 2 0 1 0;
#X connect 2 0 15 0;
#X connect 3 0 4 0;
#X connect 3 1 5 0;
#X connect 3 2 6 0;
#X connect 4 0 19 0;
#X connect 5 0 20 0;
#X connect 6 0 21 0;
#X connect 7 0 0 0;
#X connect 7 0 13 0;
#X connect 7 0 22 0;
#X connect 9 0 14 0;
#X connect 9 0 17 0;
#X connect 14 0 16 0;
#X connect 16 0 2 0;
#X connect 19 0 7 0;
#X connect 20 0 7 0;
#X connect 21 0 7 0;
