#N canvas 674 124 958 624 12;
#X obj 103 377 expr abs($f1 / 44.1);
#X floatatom 30 127 5 1 3 0 - - - 0;
#X obj 30 210 bng 15 250 50 0 empty empty empty 17 7 0 10 #fcfcfc #000000
#000000;
#X floatatom 103 284 9 0 0 0 - - - 0;
#X text 206 161 number of the randomly selected sample, f 23;
#X obj 30 16 inlet;
#X text 111 310 number of samples in the selected sample, f 22;
#X obj 103 431 outlet;
#X text 157 432 duration in ms;
#X obj 51 319 outlet;
#X obj 30 61 bng 15 250 50 0 empty empty empty 17 7 0 10 #fcfcfc #000000
#000000;
#X obj 75 51 print selectasample_ch5;
#X obj 60 165 v ch5selectedsample;
#X obj 30 244 expr ch5dur1;
#X obj 21 354 print fulldurationch5;
#X obj 127 406 print calculateddurationch5;
#X msg 30 89 1;
#X connect 0 0 7 0;
#X connect 0 0 15 0;
#X connect 1 0 12 0;
#X connect 1 0 2 0;
#X connect 2 0 13 0;
#X connect 3 0 0 0;
#X connect 3 0 9 0;
#X connect 3 0 14 0;
#X connect 5 0 10 0;
#X connect 5 0 11 0;
#X connect 10 0 16 0;
#X connect 13 0 3 0;
#X connect 16 0 1 0;
