#N canvas 525 362 1177 624 12;
#X obj 101 479 expr abs($f1 / 44.1);
#X floatatom 29 137 5 1 3 0 - - - 0;
#X obj 29 107 + 1;
#X obj 29 177 select 1 2 3;
#X obj 29 220 bng 15 250 50 0 empty empty empty 17 7 0 10 #fcfcfc #000000
#000000;
#X obj 189 221 bng 15 250 50 0 empty empty empty 17 7 0 10 #fcfcfc
#000000 #000000;
#X obj 349 222 bng 15 250 50 0 empty empty empty 17 7 0 10 #fcfcfc
#000000 #000000;
#X floatatom 101 386 9 0 0 0 - - - 0;
#X text 192 164 number of the randomly selected sample, f 23;
#X obj 29 16 inlet;
#X text 109 412 number of samples in the selected sample, f 22;
#X obj 101 533 outlet;
#X text 155 534 duration in ms;
#X obj 49 421 outlet;
#X obj 29 45 bng 15 250 50 0 empty empty empty 17 7 0 10 #fcfcfc #000000
#000000;
#X obj 19 456 print fullduration;
#X obj 125 508 print calculatedduration;
#X obj 148 169 v;
#X symbolatom 481 107 27 0 0 0 - - - 0;
#X obj 481 44 bng 15 250 50 0 empty empty empty 17 7 0 10 #fcfcfc #000000
#000000;
#X obj 101 354 v;
#X obj 101 322 t b s;
#X obj 29 253 makefilename ch\$1dur1;
#X symbolatom 29 283 10 0 0 0 - - - 0;
#X symbolatom 189 283 10 0 0 0 - - - 0;
#X obj 189 253 makefilename ch\$1dur2;
#X symbolatom 349 283 10 0 0 0 - - - 0;
#X obj 349 253 makefilename ch\$1dur3;
#X obj 745 14 cnv 15 400 120 empty empty SYNTAX 12 15 1 14 #c6ffc7
#404040 0;
#X obj 29 72 random 3;
#X text 757 67 inlet: bang triggered from bonk~;
#X text 757 107 outlet 2: duration in ms;
#X text 757 87 outlet 1: number of samples in the selected sample;
#X text 756 39 [selectasample audiochannelnumber(i)], f 42;
#X obj 481 14 inlet;
#X text 524 13 loadbang;
#X text 79 15 start process (triggered from bonk~/loadbang);
#X obj 481 73 makefilename selectedsample_ch\$1;
#X obj 105 73 midi_switchbank;
#X connect 0 0 11 0;
#X connect 1 0 3 0;
#X connect 1 0 17 0;
#X connect 2 0 1 0;
#X connect 3 0 4 0;
#X connect 3 1 5 0;
#X connect 3 2 6 0;
#X connect 4 0 22 0;
#X connect 5 0 25 0;
#X connect 6 0 27 0;
#X connect 7 0 0 0;
#X connect 7 0 13 0;
#X connect 9 0 14 0;
#X connect 14 0 29 0;
#X connect 19 0 37 0;
#X connect 20 0 7 0;
#X connect 21 0 20 0;
#X connect 21 1 20 1;
#X connect 22 0 23 0;
#X connect 23 0 21 0;
#X connect 24 0 21 0;
#X connect 25 0 24 0;
#X connect 26 0 21 0;
#X connect 27 0 26 0;
#X connect 29 0 2 0;
#X connect 34 0 19 0;
#X connect 37 0 17 1;
#X connect 37 0 18 0;
#X connect 38 0 2 1;
